<svg width="241" height="52" viewBox="0 0 241 52" fill="none" xmlns="http://www.w3.org/2000/svg">
<path d="M10.016 42.36C8.024 42.36 6.308 41.988 4.868 41.244C3.428 40.5 2.312 39.444 1.52 38.076C0.752 36.708 0.368 35.088 0.368 33.216C0.368 31.392 0.74 29.796 1.484 28.428C2.252 27.06 3.296 25.992 4.616 25.224C5.96 24.432 7.484 24.036 9.188 24.036C11.684 24.036 13.652 24.828 15.092 26.412C16.556 27.996 17.288 30.156 17.288 32.892V34.224H4.688C5.024 37.368 6.824 38.94 10.088 38.94C11.072 38.94 12.056 38.796 13.04 38.508C14.024 38.196 14.924 37.716 15.74 37.068L17 40.092C16.16 40.788 15.104 41.34 13.832 41.748C12.56 42.156 11.288 42.36 10.016 42.36ZM9.368 27.096C8.048 27.096 6.98 27.504 6.164 28.32C5.348 29.136 4.856 30.24 4.688 31.632H13.544C13.448 30.168 13.04 29.052 12.32 28.284C11.624 27.492 10.64 27.096 9.368 27.096ZM80.3718 42.36C79.0758 42.36 77.9118 42.072 76.8798 41.496C75.8718 40.92 75.1158 40.14 74.6118 39.156V42H70.2198V16.62H74.7198V26.988C75.2478 26.1 76.0038 25.392 76.9878 24.864C77.9958 24.312 79.1238 24.036 80.3718 24.036C81.9318 24.036 83.2878 24.408 84.4398 25.152C85.5918 25.896 86.4918 26.952 87.1398 28.32C87.7878 29.664 88.1118 31.284 88.1118 33.18C88.1118 35.052 87.7878 36.684 87.1398 38.076C86.4918 39.444 85.5798 40.5 84.4038 41.244C83.2518 41.988 81.9078 42.36 80.3718 42.36ZM79.1118 38.94C80.4558 38.94 81.5358 38.46 82.3518 37.5C83.1678 36.516 83.5758 35.076 83.5758 33.18C83.5758 31.26 83.1678 29.832 82.3518 28.896C81.5358 27.936 80.4558 27.456 79.1118 27.456C77.7678 27.456 76.6878 27.936 75.8718 28.896C75.0558 29.832 74.6478 31.26 74.6478 33.18C74.6478 35.076 75.0558 36.516 75.8718 37.5C76.6878 38.46 77.7678 38.94 79.1118 38.94ZM99.0418 42.36C97.7698 42.36 96.6298 42.12 95.6218 41.64C94.6378 41.136 93.8578 40.464 93.2818 39.624C92.7298 38.784 92.4538 37.836 92.4538 36.78C92.4538 35.484 92.7898 34.464 93.4618 33.72C94.1338 32.952 95.2258 32.4 96.7378 32.064C98.2498 31.728 100.278 31.56 102.822 31.56H104.082V30.804C104.082 29.604 103.818 28.74 103.29 28.212C102.762 27.684 101.874 27.42 100.626 27.42C99.6418 27.42 98.6338 27.576 97.6018 27.888C96.5698 28.176 95.5258 28.632 94.4698 29.256L93.1738 26.196C93.7978 25.764 94.5298 25.392 95.3698 25.08C96.2338 24.744 97.1338 24.492 98.0698 24.324C99.0298 24.132 99.9298 24.036 100.77 24.036C103.338 24.036 105.246 24.636 106.494 25.836C107.742 27.012 108.366 28.848 108.366 31.344V42H104.154V39.192C103.746 40.176 103.098 40.956 102.21 41.532C101.322 42.084 100.266 42.36 99.0418 42.36ZM99.9778 39.264C101.154 39.264 102.126 38.856 102.894 38.04C103.686 37.224 104.082 36.192 104.082 34.944V34.152H102.858C100.602 34.152 99.0298 34.332 98.1418 34.692C97.2778 35.028 96.8458 35.652 96.8458 36.564C96.8458 37.356 97.1218 38.004 97.6738 38.508C98.2258 39.012 98.9938 39.264 99.9778 39.264ZM114.373 42V24.396H118.765V27.492C119.629 25.404 121.477 24.252 124.309 24.036L125.677 23.928L125.965 27.744L123.373 27.996C120.421 28.284 118.945 29.796 118.945 32.532V42H114.373ZM137.838 48.84C136.206 48.84 134.67 48.648 133.23 48.264C131.814 47.904 130.566 47.34 129.486 46.572L130.782 43.44C131.79 44.112 132.87 44.604 134.022 44.916C135.174 45.252 136.326 45.42 137.478 45.42C140.694 45.42 142.302 43.872 142.302 40.776V38.364C141.798 39.348 141.018 40.128 139.962 40.704C138.93 41.28 137.778 41.568 136.506 41.568C134.922 41.568 133.542 41.208 132.366 40.488C131.19 39.744 130.278 38.712 129.63 37.392C128.982 36.072 128.658 34.536 128.658 32.784C128.658 31.032 128.982 29.508 129.63 28.212C130.278 26.892 131.19 25.872 132.366 25.152C133.542 24.408 134.922 24.036 136.506 24.036C137.826 24.036 139.002 24.336 140.034 24.936C141.066 25.512 141.822 26.292 142.302 27.276V24.396H146.694V40.236C146.694 43.092 145.938 45.24 144.426 46.68C142.914 48.12 140.718 48.84 137.838 48.84ZM137.73 38.148C139.122 38.148 140.226 37.668 141.042 36.708C141.858 35.748 142.266 34.44 142.266 32.784C142.266 31.128 141.858 29.832 141.042 28.896C140.226 27.936 139.122 27.456 137.73 27.456C136.338 27.456 135.234 27.936 134.418 28.896C133.602 29.832 133.194 31.128 133.194 32.784C133.194 34.44 133.602 35.748 134.418 36.708C135.234 37.668 136.338 38.148 137.73 38.148ZM160.824 42.36C159 42.36 157.416 41.988 156.072 41.244C154.728 40.5 153.684 39.444 152.94 38.076C152.196 36.684 151.824 35.052 151.824 33.18C151.824 31.308 152.196 29.688 152.94 28.32C153.684 26.952 154.728 25.896 156.072 25.152C157.416 24.408 159 24.036 160.824 24.036C162.648 24.036 164.232 24.408 165.576 25.152C166.92 25.896 167.964 26.952 168.708 28.32C169.452 29.688 169.824 31.308 169.824 33.18C169.824 35.052 169.452 36.684 168.708 38.076C167.964 39.444 166.92 40.5 165.576 41.244C164.232 41.988 162.648 42.36 160.824 42.36ZM160.824 38.94C162.168 38.94 163.248 38.46 164.064 37.5C164.88 36.516 165.288 35.076 165.288 33.18C165.288 31.26 164.88 29.832 164.064 28.896C163.248 27.936 162.168 27.456 160.824 27.456C159.48 27.456 158.4 27.936 157.584 28.896C156.768 29.832 156.36 31.26 156.36 33.18C156.36 35.076 156.768 36.516 157.584 37.5C158.4 38.46 159.48 38.94 160.824 38.94ZM185.348 42V24.396H189.74V27.132C190.34 26.124 191.144 25.356 192.152 24.828C193.184 24.3 194.336 24.036 195.608 24.036C199.76 24.036 201.836 26.448 201.836 31.272V42H197.336V31.488C197.336 30.12 197.072 29.124 196.544 28.5C196.04 27.876 195.248 27.564 194.168 27.564C192.848 27.564 191.792 27.984 191 28.824C190.232 29.64 189.848 30.732 189.848 32.1V42H185.348ZM216.523 42.36C214.531 42.36 212.815 41.988 211.375 41.244C209.935 40.5 208.819 39.444 208.027 38.076C207.259 36.708 206.875 35.088 206.875 33.216C206.875 31.392 207.247 29.796 207.991 28.428C208.759 27.06 209.803 25.992 211.123 25.224C212.467 24.432 213.991 24.036 215.695 24.036C218.191 24.036 220.159 24.828 221.599 26.412C223.063 27.996 223.795 30.156 223.795 32.892V34.224H211.195C211.531 37.368 213.331 38.94 216.595 38.94C217.579 38.94 218.563 38.796 219.547 38.508C220.531 38.196 221.431 37.716 222.247 37.068L223.507 40.092C222.667 40.788 221.611 41.34 220.339 41.748C219.067 42.156 217.795 42.36 216.523 42.36ZM215.875 27.096C214.555 27.096 213.487 27.504 212.671 28.32C211.855 29.136 211.363 30.24 211.195 31.632H220.051C219.955 30.168 219.547 29.052 218.827 28.284C218.131 27.492 217.147 27.096 215.875 27.096ZM236.792 42.36C232.136 42.36 229.808 40.056 229.808 35.448V27.78H226.424V24.396H229.808V19.14H234.308V24.396H239.636V27.78H234.308V35.196C234.308 36.348 234.56 37.212 235.064 37.788C235.568 38.364 236.384 38.652 237.512 38.652C237.848 38.652 238.196 38.616 238.556 38.544C238.916 38.448 239.288 38.352 239.672 38.256L240.356 41.568C239.924 41.808 239.372 42 238.7 42.144C238.052 42.288 237.416 42.36 236.792 42.36Z" fill="white"/>
<path d="M64.1517 17.68C63.2717 14.6 60.1917 12.28 56.9917 13.6C52.6717 15.36 49.7517 20.64 47.5117 24.88C48.7917 19.8 50.3917 12.76 47.5517 8.72C41.5917 0.239999 33.2317 15.12 28.5917 25.16L33.2717 7.72C33.4717 7.08 31.0717 5.44 30.9117 6.12L19.2317 49.72C19.0317 50.44 21.4317 51.84 21.5517 51.48C24.9517 40.76 28.9917 29.96 34.3917 20.08C35.8717 17.16 37.7117 14.44 39.7917 11.96C40.8717 10.68 43.4317 7.84 45.3917 8.32C46.0317 8.44 46.1517 9.28 46.3117 10.44C46.4717 11.84 46.5117 13.28 46.3917 14.72C46.1117 18.08 45.5517 21.44 44.7917 24.72C43.6317 30 42.1917 35.2 40.5117 40.32C40.2317 41.08 42.6317 42.6 42.7917 42.16C44.4717 37.76 46.3917 33.44 48.5517 29.24C50.0317 26.24 51.7917 23.36 53.7517 20.6C55.1517 18.72 57.5517 15.4 60.1517 15.24C62.7517 15.04 62.1917 19.08 62.0717 21C61.7917 24.36 61.2317 27.72 60.4317 31C59.0717 37.24 56.9117 43.4 55.9517 49.72C55.8317 50.48 58.2317 51.96 58.3117 51.36C59.1917 45.68 61.0717 40.16 62.3517 34.6C63.5517 29.52 65.6317 22.92 64.1517 17.68ZM174.582 34.872V29.868H179.622V34.872H174.582Z" fill="#F2C94C"/>
</svg>
