<svg width="119" height="64" viewBox="0 0 119 64" fill="none" xmlns="http://www.w3.org/2000/svg">
<rect width="32" height="32" rx="16" fill="#F2C94C"/>
<path d="M16.0991 21.16C15.3631 21.16 14.6485 21.048 13.9551 20.824C13.2618 20.5893 12.6965 20.2747 12.2591 19.88L12.9311 18.312C13.9018 19.0587 14.9471 19.432 16.0671 19.432C16.7391 19.432 17.2618 19.2613 17.6351 18.92C18.0191 18.568 18.2111 18.0987 18.2111 17.512C18.2111 16.9147 18.0298 16.4347 17.6671 16.072C17.3045 15.6987 16.8085 15.512 16.1791 15.512C15.2831 15.512 14.5418 15.8693 13.9551 16.584H12.5791V9.72H19.5071V11.416H14.5791V14.472C15.1445 14.0453 15.8378 13.832 16.6591 13.832C17.3738 13.832 17.9925 13.9867 18.5151 14.296C19.0485 14.5947 19.4591 15.016 19.7471 15.56C20.0458 16.0933 20.1951 16.7173 20.1951 17.432C20.1951 18.168 20.0298 18.8187 19.6991 19.384C19.3685 19.9387 18.8938 20.376 18.2751 20.696C17.6671 21.0053 16.9418 21.16 16.0991 21.16Z" fill="#0E0E0E"/>
<path d="M0.288 61.448V58.152H1.376C1.96267 57.416 2.39467 56.4347 2.672 55.208C2.94933 53.9813 3.088 52.4507 3.088 50.616V47.72H10.336V58.152H11.936V61.448H11.024V59H1.2V61.448H0.288ZM2.432 58.152H9.344V48.568H4.016V50.664C4.016 52.4667 3.888 53.9653 3.632 55.16C3.38667 56.3547 2.98667 57.352 2.432 58.152ZM16.7289 59.128C16.0035 59.128 15.3742 58.968 14.8409 58.648C14.3075 58.3173 13.8915 57.8533 13.5929 57.256C13.3049 56.648 13.1609 55.9333 13.1609 55.112C13.1609 54.3013 13.3049 53.5973 13.5929 53C13.8915 52.392 14.3075 51.9227 14.8409 51.592C15.3742 51.2613 16.0035 51.096 16.7289 51.096C17.4649 51.096 18.0995 51.2613 18.6329 51.592C19.1662 51.9227 19.5769 52.392 19.8649 53C20.1635 53.5973 20.3129 54.3013 20.3129 55.112C20.3129 55.9333 20.1635 56.648 19.8649 57.256C19.5769 57.8533 19.1662 58.3173 18.6329 58.648C18.0995 58.968 17.4649 59.128 16.7289 59.128ZM16.7289 58.312C17.5182 58.312 18.1475 58.0347 18.6169 57.48C19.0862 56.9147 19.3209 56.1253 19.3209 55.112C19.3209 54.0987 19.0862 53.3147 18.6169 52.76C18.1475 52.2053 17.5182 51.928 16.7289 51.928C15.9395 51.928 15.3102 52.2053 14.8409 52.76C14.3822 53.3147 14.1529 54.0987 14.1529 55.112C14.1529 56.1253 14.3822 56.9147 14.8409 57.48C15.3102 58.0347 15.9395 58.312 16.7289 58.312ZM25.6839 59.128C24.9265 59.128 24.2759 58.9627 23.7319 58.632C23.1879 58.2907 22.7665 57.816 22.4679 57.208C22.1799 56.5893 22.0359 55.8747 22.0359 55.064C22.0359 53.8373 22.3559 52.872 22.9959 52.168C23.6465 51.4533 24.5425 51.096 25.6839 51.096C26.1532 51.096 26.6172 51.1867 27.0759 51.368C27.5345 51.5493 27.9185 51.8 28.2279 52.12L27.8439 52.856C27.5132 52.536 27.1612 52.3067 26.7879 52.168C26.4145 52.0187 26.0572 51.944 25.7159 51.944C24.8519 51.944 24.1852 52.216 23.7159 52.76C23.2572 53.304 23.0279 54.0773 23.0279 55.08C23.0279 56.0827 23.2572 56.872 23.7159 57.448C24.1852 58.0133 24.8519 58.296 25.7159 58.296C26.0572 58.296 26.4145 58.2267 26.7879 58.088C27.1612 57.9387 27.5132 57.704 27.8439 57.384L28.2279 58.12C27.9185 58.4293 27.5292 58.6747 27.0599 58.856C26.6012 59.0373 26.1425 59.128 25.6839 59.128ZM31.6006 59V52.056H28.7046V51.24H35.4726V52.056H32.5766V59H31.6006ZM39.2753 59.128C38.7526 59.128 38.2833 59.0267 37.8673 58.824C37.4619 58.6213 37.1366 58.344 36.8913 57.992C36.6566 57.64 36.5393 57.2453 36.5393 56.808C36.5393 56.232 36.6833 55.784 36.9713 55.464C37.2593 55.1333 37.7446 54.8987 38.4273 54.76C39.1099 54.6213 40.0486 54.552 41.2433 54.552H41.7393V53.976C41.7393 53.2613 41.5953 52.744 41.3073 52.424C41.0193 52.0933 40.5606 51.928 39.9313 51.928C39.4619 51.928 39.0086 51.9973 38.5713 52.136C38.1446 52.2747 37.7019 52.4933 37.2433 52.792L36.8593 52.04C37.2646 51.752 37.7446 51.5227 38.2993 51.352C38.8539 51.1813 39.3926 51.096 39.9153 51.096C40.8539 51.096 41.5473 51.336 41.9953 51.816C42.4539 52.296 42.6833 53.032 42.6833 54.024V59H41.7553V57.608C41.5419 58.088 41.2166 58.4613 40.7793 58.728C40.3526 58.9947 39.8513 59.128 39.2753 59.128ZM39.4033 58.344C39.8619 58.344 40.2619 58.2373 40.6033 58.024C40.9553 57.8 41.2326 57.496 41.4353 57.112C41.6379 56.728 41.7393 56.2907 41.7393 55.8V55.272H41.2593C40.2993 55.272 39.5473 55.3147 39.0033 55.4C38.4699 55.4853 38.0966 55.6347 37.8832 55.848C37.6699 56.0613 37.5633 56.3547 37.5633 56.728C37.5633 57.208 37.7286 57.5973 38.0593 57.896C38.3899 58.1947 38.8379 58.344 39.4033 58.344ZM45.344 59V51.24H48.944C50.6827 51.24 51.552 51.9227 51.552 53.288C51.552 53.6933 51.4347 54.0507 51.2 54.36C50.976 54.6587 50.6667 54.8773 50.272 55.016C50.7413 55.1227 51.1147 55.3413 51.392 55.672C51.6693 56.0027 51.808 56.4027 51.808 56.872C51.808 57.5333 51.568 58.056 51.088 58.44C50.608 58.8133 49.936 59 49.072 59H45.344ZM46.288 54.696H48.944C49.4667 54.696 49.872 54.5787 50.16 54.344C50.4587 54.0987 50.608 53.7573 50.608 53.32C50.608 52.8933 50.4587 52.5627 50.16 52.328C49.872 52.0827 49.4667 51.96 48.944 51.96H46.288V54.696ZM46.288 58.28H49.072C49.648 58.28 50.0853 58.1573 50.384 57.912C50.6933 57.6667 50.848 57.3093 50.848 56.84C50.848 56.3813 50.6933 56.0293 50.384 55.784C50.0853 55.5387 49.648 55.416 49.072 55.416H46.288V58.28ZM53.9378 59V51.24H54.9138V54.584H56.5138L59.1858 51.24H60.2898L57.5058 54.744C57.8044 54.84 58.0711 55.0107 58.3058 55.256C58.5404 55.5013 58.8178 55.8853 59.1378 56.408L60.7058 59H59.6498L58.2098 56.616C58.0071 56.296 57.8151 56.0453 57.6338 55.864C57.4631 55.6827 57.2658 55.56 57.0418 55.496C56.8284 55.4213 56.5564 55.384 56.2258 55.384H54.9138V59H53.9378ZM64.5096 59.128C63.987 59.128 63.5176 59.0267 63.1016 58.824C62.6963 58.6213 62.371 58.344 62.1256 57.992C61.891 57.64 61.7736 57.2453 61.7736 56.808C61.7736 56.232 61.9176 55.784 62.2056 55.464C62.4936 55.1333 62.979 54.8987 63.6616 54.76C64.3443 54.6213 65.283 54.552 66.4776 54.552H66.9736V53.976C66.9736 53.2613 66.8296 52.744 66.5416 52.424C66.2536 52.0933 65.795 51.928 65.1656 51.928C64.6963 51.928 64.243 51.9973 63.8056 52.136C63.379 52.2747 62.9363 52.4933 62.4776 52.792L62.0936 52.04C62.499 51.752 62.979 51.5227 63.5336 51.352C64.0883 51.1813 64.627 51.096 65.1496 51.096C66.0883 51.096 66.7816 51.336 67.2296 51.816C67.6883 52.296 67.9176 53.032 67.9176 54.024V59H66.9896V57.608C66.7763 58.088 66.451 58.4613 66.0136 58.728C65.587 58.9947 65.0856 59.128 64.5096 59.128ZM64.6376 58.344C65.0963 58.344 65.4963 58.2373 65.8376 58.024C66.1896 57.8 66.467 57.496 66.6696 57.112C66.8723 56.728 66.9736 56.2907 66.9736 55.8V55.272H66.4936C65.5336 55.272 64.7816 55.3147 64.2376 55.4C63.7043 55.4853 63.331 55.6347 63.1176 55.848C62.9043 56.0613 62.7976 56.3547 62.7976 56.728C62.7976 57.208 62.963 57.5973 63.2936 57.896C63.6243 58.1947 64.0723 58.344 64.6376 58.344ZM73.682 61.08V58.2H74.466C74.8607 57.6347 75.1433 56.9787 75.314 56.232C75.4953 55.4747 75.586 54.5893 75.586 53.576V51.24H80.834V58.2H82.034V61.08H81.186V59H74.53V61.08H73.682ZM75.474 58.2H79.89V52.04H76.482V53.672C76.482 54.536 76.3913 55.368 76.21 56.168C76.0393 56.9573 75.794 57.6347 75.474 58.2ZM86.9633 59.128C86.2379 59.128 85.6086 58.968 85.0753 58.648C84.5419 58.3173 84.1259 57.8533 83.8273 57.256C83.5393 56.648 83.3953 55.9333 83.3953 55.112C83.3953 54.3013 83.5393 53.5973 83.8273 53C84.1259 52.392 84.5419 51.9227 85.0753 51.592C85.6086 51.2613 86.2379 51.096 86.9633 51.096C87.6993 51.096 88.3339 51.2613 88.8673 51.592C89.4006 51.9227 89.8113 52.392 90.0993 53C90.3979 53.5973 90.5473 54.3013 90.5473 55.112C90.5473 55.9333 90.3979 56.648 90.0993 57.256C89.8113 57.8533 89.4006 58.3173 88.8673 58.648C88.3339 58.968 87.6993 59.128 86.9633 59.128ZM86.9633 58.312C87.7526 58.312 88.3819 58.0347 88.8513 57.48C89.3206 56.9147 89.5553 56.1253 89.5553 55.112C89.5553 54.0987 89.3206 53.3147 88.8513 52.76C88.3819 52.2053 87.7526 51.928 86.9633 51.928C86.1739 51.928 85.5446 52.2053 85.0753 52.76C84.6166 53.3147 84.3873 54.0987 84.3873 55.112C84.3873 56.1253 84.6166 56.9147 85.0753 57.48C85.5446 58.0347 86.1739 58.312 86.9633 58.312ZM96.8939 59V47.72H101.15C102.355 47.72 103.273 48.008 103.902 48.584C104.542 49.16 104.862 49.9813 104.862 51.048C104.862 52.104 104.542 52.9253 103.902 53.512C103.273 54.088 102.355 54.376 101.15 54.376H97.8699V59H96.8939ZM97.8699 53.512H101.07C102.937 53.512 103.87 52.6907 103.87 51.048C103.87 49.3947 102.937 48.568 101.07 48.568H97.8699V53.512ZM111.534 59.336V58.088H111.422C110.388 58.088 109.497 57.896 108.75 57.512C108.004 57.1173 107.428 56.5573 107.022 55.832C106.628 55.1067 106.43 54.2533 106.43 53.272C106.43 51.7787 106.862 50.6053 107.726 49.752C108.601 48.888 109.833 48.456 111.422 48.456H111.534V47.304H112.526V48.456H112.622C114.212 48.456 115.438 48.888 116.302 49.752C117.177 50.6053 117.614 51.7787 117.614 53.272C117.614 54.2533 117.412 55.1067 117.006 55.832C116.612 56.5573 116.041 57.1173 115.294 57.512C114.548 57.896 113.657 58.088 112.622 58.088H112.526V59.336H111.534ZM112.798 49.304H112.51V57.256H112.798C113.556 57.256 114.217 57.096 114.782 56.776C115.358 56.4453 115.801 55.9867 116.11 55.4C116.42 54.8027 116.574 54.0933 116.574 53.272C116.574 52.0133 116.233 51.0373 115.55 50.344C114.878 49.6507 113.961 49.304 112.798 49.304ZM111.262 57.256H111.534V49.304H111.262C110.089 49.304 109.161 49.6507 108.478 50.344C107.806 51.0373 107.47 52.0133 107.47 53.272C107.47 54.0933 107.625 54.8027 107.934 55.4C108.244 55.9867 108.681 56.4453 109.246 56.776C109.822 57.096 110.494 57.256 111.262 57.256Z" fill="white"/>
</svg>
