<svg width="131" height="84" viewBox="0 0 131 84" fill="none" xmlns="http://www.w3.org/2000/svg">
<rect width="32" height="32" rx="16" fill="#F2C94C"/>
<path d="M12.5791 21L17.6671 11.432H12.0831V9.72H19.9391V11.256L14.8351 21H12.5791Z" fill="#0E0E0E"/>
<path d="M0.288 61.448V58.152H1.376C1.96267 57.416 2.39467 56.4347 2.672 55.208C2.94933 53.9813 3.088 52.4507 3.088 50.616V47.72H10.336V58.152H11.936V61.448H11.024V59H1.2V61.448H0.288ZM2.432 58.152H9.344V48.568H4.016V50.664C4.016 52.4667 3.888 53.9653 3.632 55.16C3.38667 56.3547 2.98667 57.352 2.432 58.152ZM16.7289 59.128C16.0035 59.128 15.3742 58.968 14.8409 58.648C14.3075 58.3173 13.8915 57.8533 13.5929 57.256C13.3049 56.648 13.1609 55.9333 13.1609 55.112C13.1609 54.3013 13.3049 53.5973 13.5929 53C13.8915 52.392 14.3075 51.9227 14.8409 51.592C15.3742 51.2613 16.0035 51.096 16.7289 51.096C17.4649 51.096 18.0995 51.2613 18.6329 51.592C19.1662 51.9227 19.5769 52.392 19.8649 53C20.1635 53.5973 20.3129 54.3013 20.3129 55.112C20.3129 55.9333 20.1635 56.648 19.8649 57.256C19.5769 57.8533 19.1662 58.3173 18.6329 58.648C18.0995 58.968 17.4649 59.128 16.7289 59.128ZM16.7289 58.312C17.5182 58.312 18.1475 58.0347 18.6169 57.48C19.0862 56.9147 19.3209 56.1253 19.3209 55.112C19.3209 54.0987 19.0862 53.3147 18.6169 52.76C18.1475 52.2053 17.5182 51.928 16.7289 51.928C15.9395 51.928 15.3102 52.2053 14.8409 52.76C14.3822 53.3147 14.1529 54.0987 14.1529 55.112C14.1529 56.1253 14.3822 56.9147 14.8409 57.48C15.3102 58.0347 15.9395 58.312 16.7289 58.312ZM25.6839 59.128C24.9265 59.128 24.2759 58.9627 23.7319 58.632C23.1879 58.2907 22.7665 57.816 22.4679 57.208C22.1799 56.5893 22.0359 55.8747 22.0359 55.064C22.0359 53.8373 22.3559 52.872 22.9959 52.168C23.6465 51.4533 24.5425 51.096 25.6839 51.096C26.1532 51.096 26.6172 51.1867 27.0759 51.368C27.5345 51.5493 27.9185 51.8 28.2279 52.12L27.8439 52.856C27.5132 52.536 27.1612 52.3067 26.7879 52.168C26.4145 52.0187 26.0572 51.944 25.7159 51.944C24.8519 51.944 24.1852 52.216 23.7159 52.76C23.2572 53.304 23.0279 54.0773 23.0279 55.08C23.0279 56.0827 23.2572 56.872 23.7159 57.448C24.1852 58.0133 24.8519 58.296 25.7159 58.296C26.0572 58.296 26.4145 58.2267 26.7879 58.088C27.1612 57.9387 27.5132 57.704 27.8439 57.384L28.2279 58.12C27.9185 58.4293 27.5292 58.6747 27.0599 58.856C26.6012 59.0373 26.1425 59.128 25.6839 59.128ZM31.6006 59V52.056H28.7046V51.24H35.4726V52.056H32.5766V59H31.6006ZM39.2753 59.128C38.7526 59.128 38.2833 59.0267 37.8673 58.824C37.4619 58.6213 37.1366 58.344 36.8913 57.992C36.6566 57.64 36.5393 57.2453 36.5393 56.808C36.5393 56.232 36.6833 55.784 36.9713 55.464C37.2593 55.1333 37.7446 54.8987 38.4273 54.76C39.1099 54.6213 40.0486 54.552 41.2433 54.552H41.7393V53.976C41.7393 53.2613 41.5953 52.744 41.3073 52.424C41.0193 52.0933 40.5606 51.928 39.9313 51.928C39.4619 51.928 39.0086 51.9973 38.5713 52.136C38.1446 52.2747 37.7019 52.4933 37.2433 52.792L36.8593 52.04C37.2646 51.752 37.7446 51.5227 38.2993 51.352C38.8539 51.1813 39.3926 51.096 39.9153 51.096C40.8539 51.096 41.5473 51.336 41.9953 51.816C42.4539 52.296 42.6833 53.032 42.6833 54.024V59H41.7553V57.608C41.5419 58.088 41.2166 58.4613 40.7793 58.728C40.3526 58.9947 39.8513 59.128 39.2753 59.128ZM39.4033 58.344C39.8619 58.344 40.2619 58.2373 40.6033 58.024C40.9553 57.8 41.2326 57.496 41.4353 57.112C41.6379 56.728 41.7393 56.2907 41.7393 55.8V55.272H41.2593C40.2993 55.272 39.5473 55.3147 39.0033 55.4C38.4699 55.4853 38.0966 55.6347 37.8832 55.848C37.6699 56.0613 37.5633 56.3547 37.5633 56.728C37.5633 57.208 37.7286 57.5973 38.0593 57.896C38.3899 58.1947 38.8379 58.344 39.4033 58.344ZM45.344 59V51.24H48.944C50.6827 51.24 51.552 51.9227 51.552 53.288C51.552 53.6933 51.4347 54.0507 51.2 54.36C50.976 54.6587 50.6667 54.8773 50.272 55.016C50.7413 55.1227 51.1147 55.3413 51.392 55.672C51.6693 56.0027 51.808 56.4027 51.808 56.872C51.808 57.5333 51.568 58.056 51.088 58.44C50.608 58.8133 49.936 59 49.072 59H45.344ZM46.288 54.696H48.944C49.4667 54.696 49.872 54.5787 50.16 54.344C50.4587 54.0987 50.608 53.7573 50.608 53.32C50.608 52.8933 50.4587 52.5627 50.16 52.328C49.872 52.0827 49.4667 51.96 48.944 51.96H46.288V54.696ZM46.288 58.28H49.072C49.648 58.28 50.0853 58.1573 50.384 57.912C50.6933 57.6667 50.848 57.3093 50.848 56.84C50.848 56.3813 50.6933 56.0293 50.384 55.784C50.0853 55.5387 49.648 55.416 49.072 55.416H46.288V58.28ZM53.9378 59V51.24H54.9138V54.584H56.5138L59.1858 51.24H60.2898L57.5058 54.744C57.8044 54.84 58.0711 55.0107 58.3058 55.256C58.5404 55.5013 58.8178 55.8853 59.1378 56.408L60.7058 59H59.6498L58.2098 56.616C58.0071 56.296 57.8151 56.0453 57.6338 55.864C57.4631 55.6827 57.2658 55.56 57.0418 55.496C56.8284 55.4213 56.5564 55.384 56.2258 55.384H54.9138V59H53.9378ZM64.5096 59.128C63.987 59.128 63.5176 59.0267 63.1016 58.824C62.6963 58.6213 62.371 58.344 62.1256 57.992C61.891 57.64 61.7736 57.2453 61.7736 56.808C61.7736 56.232 61.9176 55.784 62.2056 55.464C62.4936 55.1333 62.979 54.8987 63.6616 54.76C64.3443 54.6213 65.283 54.552 66.4776 54.552H66.9736V53.976C66.9736 53.2613 66.8296 52.744 66.5416 52.424C66.2536 52.0933 65.795 51.928 65.1656 51.928C64.6963 51.928 64.243 51.9973 63.8056 52.136C63.379 52.2747 62.9363 52.4933 62.4776 52.792L62.0936 52.04C62.499 51.752 62.979 51.5227 63.5336 51.352C64.0883 51.1813 64.627 51.096 65.1496 51.096C66.0883 51.096 66.7816 51.336 67.2296 51.816C67.6883 52.296 67.9176 53.032 67.9176 54.024V59H66.9896V57.608C66.7763 58.088 66.451 58.4613 66.0136 58.728C65.587 58.9947 65.0856 59.128 64.5096 59.128ZM64.6376 58.344C65.0963 58.344 65.4963 58.2373 65.8376 58.024C66.1896 57.8 66.467 57.496 66.6696 57.112C66.8723 56.728 66.9736 56.2907 66.9736 55.8V55.272H66.4936C65.5336 55.272 64.7816 55.3147 64.2376 55.4C63.7043 55.4853 63.331 55.6347 63.1176 55.848C62.9043 56.0613 62.7976 56.3547 62.7976 56.728C62.7976 57.208 62.963 57.5973 63.2936 57.896C63.6243 58.1947 64.0723 58.344 64.6376 58.344ZM0.432 81.08V78.2H1.216C1.61067 77.6347 1.89333 76.9787 2.064 76.232C2.24533 75.4747 2.336 74.5893 2.336 73.576V71.24H7.584V78.2H8.784V81.08H7.936V79H1.28V81.08H0.432ZM2.224 78.2H6.64V72.04H3.232V73.672C3.232 74.536 3.14133 75.368 2.96 76.168C2.78933 76.9573 2.544 77.6347 2.224 78.2ZM13.7133 79.128C12.9879 79.128 12.3586 78.968 11.8253 78.648C11.2919 78.3173 10.8759 77.8533 10.5773 77.256C10.2893 76.648 10.1453 75.9333 10.1453 75.112C10.1453 74.3013 10.2893 73.5973 10.5773 73C10.8759 72.392 11.2919 71.9227 11.8253 71.592C12.3586 71.2613 12.9879 71.096 13.7133 71.096C14.4493 71.096 15.0839 71.2613 15.6173 71.592C16.1506 71.9227 16.5613 72.392 16.8493 73C17.1479 73.5973 17.2973 74.3013 17.2973 75.112C17.2973 75.9333 17.1479 76.648 16.8493 77.256C16.5613 77.8533 16.1506 78.3173 15.6173 78.648C15.0839 78.968 14.4493 79.128 13.7133 79.128ZM13.7133 78.312C14.5026 78.312 15.1319 78.0347 15.6013 77.48C16.0706 76.9147 16.3053 76.1253 16.3053 75.112C16.3053 74.0987 16.0706 73.3147 15.6013 72.76C15.1319 72.2053 14.5026 71.928 13.7133 71.928C12.9239 71.928 12.2946 72.2053 11.8253 72.76C11.3666 73.3147 11.1373 74.0987 11.1373 75.112C11.1373 76.1253 11.3666 76.9147 11.8253 77.48C12.2946 78.0347 12.9239 78.312 13.7133 78.312ZM23.5159 79V71.24H27.1159C28.8545 71.24 29.7239 71.9227 29.7239 73.288C29.7239 73.6933 29.6065 74.0507 29.3719 74.36C29.1479 74.6587 28.8385 74.8773 28.4439 75.016C28.9132 75.1227 29.2865 75.3413 29.5639 75.672C29.8412 76.0027 29.9799 76.4027 29.9799 76.872C29.9799 77.5333 29.7399 78.056 29.2599 78.44C28.7799 78.8133 28.1079 79 27.2439 79H23.5159ZM24.4599 74.696H27.1159C27.6385 74.696 28.0439 74.5787 28.3319 74.344C28.6305 74.0987 28.7799 73.7573 28.7799 73.32C28.7799 72.8933 28.6305 72.5627 28.3319 72.328C28.0439 72.0827 27.6385 71.96 27.1159 71.96H24.4599V74.696ZM24.4599 78.28H27.2439C27.8199 78.28 28.2572 78.1573 28.5559 77.912C28.8652 77.6667 29.0199 77.3093 29.0199 76.84C29.0199 76.3813 28.8652 76.0293 28.5559 75.784C28.2572 75.5387 27.8199 75.416 27.2439 75.416H24.4599V78.28ZM34.5096 79.128C33.987 79.128 33.5176 79.0267 33.1016 78.824C32.6963 78.6213 32.371 78.344 32.1256 77.992C31.891 77.64 31.7736 77.2453 31.7736 76.808C31.7736 76.232 31.9176 75.784 32.2056 75.464C32.4936 75.1333 32.979 74.8987 33.6616 74.76C34.3443 74.6213 35.283 74.552 36.4776 74.552H36.9736V73.976C36.9736 73.2613 36.8296 72.744 36.5416 72.424C36.2536 72.0933 35.795 71.928 35.1656 71.928C34.6963 71.928 34.243 71.9973 33.8056 72.136C33.379 72.2747 32.9363 72.4933 32.4776 72.792L32.0936 72.04C32.499 71.752 32.979 71.5227 33.5336 71.352C34.0883 71.1813 34.627 71.096 35.1496 71.096C36.0883 71.096 36.7816 71.336 37.2296 71.816C37.6883 72.296 37.9176 73.032 37.9176 74.024V79H36.9896V77.608C36.7763 78.088 36.451 78.4613 36.0136 78.728C35.587 78.9947 35.0856 79.128 34.5096 79.128ZM34.6376 78.344C35.0963 78.344 35.4963 78.2373 35.8376 78.024C36.1896 77.8 36.467 77.496 36.6696 77.112C36.8723 76.728 36.9736 76.2907 36.9736 75.8V75.272H36.4936C35.5336 75.272 34.7816 75.3147 34.2376 75.4C33.7043 75.4853 33.331 75.6347 33.1176 75.848C32.9043 76.0613 32.7976 76.3547 32.7976 76.728C32.7976 77.208 32.963 77.5973 33.2936 77.896C33.6243 78.1947 34.0723 78.344 34.6376 78.344ZM40.5784 79V71.24H41.5384V78.2H45.0264V71.24H45.9864V78.2H49.4904V71.24H50.4344V79H40.5784ZM56.5013 79.128C55.3066 79.128 54.3626 78.776 53.6693 78.072C52.9866 77.3573 52.6453 76.3813 52.6453 75.144C52.6453 74.344 52.7999 73.64 53.1093 73.032C53.4186 72.424 53.8453 71.9493 54.3893 71.608C54.9439 71.2667 55.5786 71.096 56.2933 71.096C57.3279 71.096 58.1333 71.432 58.7093 72.104C59.2853 72.776 59.5733 73.6987 59.5733 74.872V75.32H53.6053C53.6373 76.28 53.8986 77.0213 54.3893 77.544C54.8906 78.056 55.5839 78.312 56.4693 78.312C56.9493 78.312 57.3973 78.2373 57.8133 78.088C58.2399 77.9387 58.6559 77.688 59.0613 77.336L59.4453 78.072C59.1039 78.4027 58.6666 78.664 58.1333 78.856C57.5999 79.0373 57.0559 79.128 56.5013 79.128ZM56.3093 71.88C55.4986 71.88 54.8639 72.136 54.4053 72.648C53.9573 73.1493 53.6959 73.8 53.6213 74.6H58.6933C58.6719 73.7467 58.4586 73.08 58.0533 72.6C57.6479 72.12 57.0666 71.88 56.3093 71.88ZM61.6878 79V71.24H66.9358V72.056H62.6638V79H61.6878ZM71.5726 79.128C70.8473 79.128 70.218 78.968 69.6846 78.648C69.1513 78.3173 68.7353 77.8533 68.4366 77.256C68.1486 76.648 68.0046 75.9333 68.0046 75.112C68.0046 74.3013 68.1486 73.5973 68.4366 73C68.7353 72.392 69.1513 71.9227 69.6846 71.592C70.218 71.2613 70.8473 71.096 71.5726 71.096C72.3086 71.096 72.9433 71.2613 73.4766 71.592C74.01 71.9227 74.4206 72.392 74.7086 73C75.0073 73.5973 75.1566 74.3013 75.1566 75.112C75.1566 75.9333 75.0073 76.648 74.7086 77.256C74.4206 77.8533 74.01 78.3173 73.4766 78.648C72.9433 78.968 72.3086 79.128 71.5726 79.128ZM71.5726 78.312C72.362 78.312 72.9913 78.0347 73.4606 77.48C73.93 76.9147 74.1646 76.1253 74.1646 75.112C74.1646 74.0987 73.93 73.3147 73.4606 72.76C72.9913 72.2053 72.362 71.928 71.5726 71.928C70.7833 71.928 70.154 72.2053 69.6846 72.76C69.226 73.3147 68.9966 74.0987 68.9966 75.112C68.9966 76.1253 69.226 76.9147 69.6846 77.48C70.154 78.0347 70.7833 78.312 71.5726 78.312ZM84.5433 79.128C83.7859 79.128 83.1353 78.9627 82.5913 78.632C82.0473 78.2907 81.6259 77.816 81.3273 77.208C81.0393 76.5893 80.8953 75.8747 80.8953 75.064C80.8953 73.8373 81.2153 72.872 81.8553 72.168C82.5059 71.4533 83.4019 71.096 84.5433 71.096C85.0126 71.096 85.4766 71.1867 85.9353 71.368C86.3939 71.5493 86.7779 71.8 87.0873 72.12L86.7033 72.856C86.3726 72.536 86.0206 72.3067 85.6473 72.168C85.2739 72.0187 84.9166 71.944 84.5753 71.944C83.7113 71.944 83.0446 72.216 82.5753 72.76C82.1166 73.304 81.8873 74.0773 81.8873 75.08C81.8873 76.0827 82.1166 76.872 82.5753 77.448C83.0446 78.0133 83.7113 78.296 84.5753 78.296C84.9166 78.296 85.2739 78.2267 85.6473 78.088C86.0206 77.9387 86.3726 77.704 86.7033 77.384L87.0873 78.12C86.7779 78.4293 86.3886 78.6747 85.9193 78.856C85.4606 79.0373 85.0019 79.128 84.5433 79.128ZM88.844 79V71.24H89.82V74.584H91.42L94.092 71.24H95.196L92.412 74.744C92.7107 74.84 92.9773 75.0107 93.212 75.256C93.4467 75.5013 93.724 75.8853 94.044 76.408L95.612 79H94.556L93.116 76.616C92.9133 76.296 92.7213 76.0453 92.54 75.864C92.3693 75.6827 92.172 75.56 91.948 75.496C91.7347 75.4213 91.4627 75.384 91.132 75.384H89.82V79H88.844ZM96.4719 79.16L96.0559 78.392C96.5572 78.1573 96.9465 77.8427 97.2239 77.448C97.5119 77.0533 97.7092 76.5093 97.8159 75.816C97.9332 75.112 97.9919 74.184 97.9919 73.032V71.24H103.352V79H102.376V72.04H98.9199V73.064C98.9199 74.3227 98.8399 75.3573 98.6799 76.168C98.5305 76.968 98.2745 77.6027 97.9119 78.072C97.5599 78.5413 97.0799 78.904 96.4719 79.16ZM108.447 79.128C107.924 79.128 107.455 79.0267 107.039 78.824C106.634 78.6213 106.308 78.344 106.063 77.992C105.828 77.64 105.711 77.2453 105.711 76.808C105.711 76.232 105.855 75.784 106.143 75.464C106.431 75.1333 106.916 74.8987 107.599 74.76C108.282 74.6213 109.22 74.552 110.415 74.552H110.911V73.976C110.911 73.2613 110.767 72.744 110.479 72.424C110.191 72.0933 109.732 71.928 109.103 71.928C108.634 71.928 108.18 71.9973 107.743 72.136C107.316 72.2747 106.874 72.4933 106.415 72.792L106.031 72.04C106.436 71.752 106.916 71.5227 107.471 71.352C108.026 71.1813 108.564 71.096 109.087 71.096C110.026 71.096 110.719 71.336 111.167 71.816C111.626 72.296 111.855 73.032 111.855 74.024V79H110.927V77.608C110.714 78.088 110.388 78.4613 109.951 78.728C109.524 78.9947 109.023 79.128 108.447 79.128ZM108.575 78.344C109.034 78.344 109.434 78.2373 109.775 78.024C110.127 77.8 110.404 77.496 110.607 77.112C110.81 76.728 110.911 76.2907 110.911 75.8V75.272H110.431C109.471 75.272 108.719 75.3147 108.175 75.4C107.642 75.4853 107.268 75.6347 107.055 75.848C106.842 76.0613 106.735 76.3547 106.735 76.728C106.735 77.208 106.9 77.5973 107.231 77.896C107.562 78.1947 108.01 78.344 108.575 78.344ZM113.604 81.08V78.2H114.388C114.783 77.6347 115.065 76.9787 115.236 76.232C115.417 75.4747 115.508 74.5893 115.508 73.576V71.24H120.756V78.2H121.956V81.08H121.108V79H114.452V81.08H113.604ZM115.396 78.2H119.812V72.04H116.404V73.672C116.404 74.536 116.313 75.368 116.132 76.168C115.961 76.9573 115.716 77.6347 115.396 78.2ZM126.197 79.128C125.674 79.128 125.205 79.0267 124.789 78.824C124.384 78.6213 124.058 78.344 123.813 77.992C123.578 77.64 123.461 77.2453 123.461 76.808C123.461 76.232 123.605 75.784 123.893 75.464C124.181 75.1333 124.666 74.8987 125.349 74.76C126.032 74.6213 126.97 74.552 128.165 74.552H128.661V73.976C128.661 73.2613 128.517 72.744 128.229 72.424C127.941 72.0933 127.482 71.928 126.853 71.928C126.384 71.928 125.93 71.9973 125.493 72.136C125.066 72.2747 124.624 72.4933 124.165 72.792L123.781 72.04C124.186 71.752 124.666 71.5227 125.221 71.352C125.776 71.1813 126.314 71.096 126.837 71.096C127.776 71.096 128.469 71.336 128.917 71.816C129.376 72.296 129.605 73.032 129.605 74.024V79H128.677V77.608C128.464 78.088 128.138 78.4613 127.701 78.728C127.274 78.9947 126.773 79.128 126.197 79.128ZM126.325 78.344C126.784 78.344 127.184 78.2373 127.525 78.024C127.877 77.8 128.154 77.496 128.357 77.112C128.56 76.728 128.661 76.2907 128.661 75.8V75.272H128.181C127.221 75.272 126.469 75.3147 125.925 75.4C125.392 75.4853 125.018 75.6347 124.805 75.848C124.592 76.0613 124.485 76.3547 124.485 76.728C124.485 77.208 124.65 77.5973 124.981 77.896C125.312 78.1947 125.76 78.344 126.325 78.344Z" fill="white"/>
</svg>
