<svg width="93" height="84" viewBox="0 0 93 84" fill="none" xmlns="http://www.w3.org/2000/svg">
<rect width="32" height="32" rx="16" fill="#F2C94C"/>
<path d="M12.9471 21V19.304H15.4911V12.056L13.5231 13.24L12.7231 11.736L16.0831 9.72H17.5391V19.304H19.9231V21H12.9471Z" fill="#0E0E0E"/>
<path d="M5.056 59.128C4.096 59.128 3.24267 58.9947 2.496 58.728C1.74933 58.4613 1.152 58.0987 0.704 57.64L1.104 56.84C1.63733 57.32 2.21333 57.672 2.832 57.896C3.45067 58.12 4.176 58.232 5.008 58.232C6.10667 58.232 6.912 58.04 7.424 57.656C7.94667 57.2613 8.208 56.68 8.208 55.912C8.208 55.1653 7.97867 54.616 7.52 54.264C7.06133 53.9013 6.368 53.72 5.44 53.72H2.688V52.872H5.2C6.096 52.872 6.77867 52.6907 7.248 52.328C7.71733 51.9547 7.952 51.4213 7.952 50.728C7.952 50.0347 7.70133 49.4907 7.2 49.096C6.70933 48.6907 5.984 48.488 5.024 48.488C4.33067 48.488 3.67467 48.6 3.056 48.824C2.448 49.0373 1.888 49.3733 1.376 49.832L0.96 49.032C1.46133 48.5627 2.07467 48.2053 2.8 47.96C3.52533 47.7147 4.28267 47.592 5.072 47.592C6.352 47.592 7.31733 47.8693 7.968 48.424C8.62933 48.9787 8.96 49.7307 8.96 50.68C8.96 51.2987 8.79467 51.8267 8.464 52.264C8.13333 52.7013 7.68533 53.0213 7.12 53.224C7.77067 53.384 8.28267 53.6987 8.656 54.168C9.02933 54.6267 9.216 55.2133 9.216 55.928C9.216 56.9307 8.87467 57.7147 8.192 58.28C7.50933 58.8453 6.464 59.128 5.056 59.128ZM14.0096 59.128C13.487 59.128 13.0176 59.0267 12.6016 58.824C12.1963 58.6213 11.871 58.344 11.6256 57.992C11.391 57.64 11.2736 57.2453 11.2736 56.808C11.2736 56.232 11.4176 55.784 11.7056 55.464C11.9936 55.1333 12.479 54.8987 13.1616 54.76C13.8443 54.6213 14.783 54.552 15.9776 54.552H16.4736V53.976C16.4736 53.2613 16.3296 52.744 16.0416 52.424C15.7536 52.0933 15.295 51.928 14.6656 51.928C14.1963 51.928 13.743 51.9973 13.3056 52.136C12.879 52.2747 12.4363 52.4933 11.9776 52.792L11.5936 52.04C11.999 51.752 12.479 51.5227 13.0336 51.352C13.5883 51.1813 14.127 51.096 14.6496 51.096C15.5883 51.096 16.2816 51.336 16.7296 51.816C17.1883 52.296 17.4176 53.032 17.4176 54.024V59H16.4896V57.608C16.2763 58.088 15.951 58.4613 15.5136 58.728C15.087 58.9947 14.5856 59.128 14.0096 59.128ZM14.1376 58.344C14.5963 58.344 14.9963 58.2373 15.3376 58.024C15.6896 57.8 15.967 57.496 16.1696 57.112C16.3723 56.728 16.4736 56.2907 16.4736 55.8V55.272H15.9936C15.0336 55.272 14.2816 55.3147 13.7376 55.4C13.2043 55.4853 12.831 55.6347 12.6176 55.848C12.4043 56.0613 12.2976 56.3547 12.2976 56.728C12.2976 57.208 12.463 57.5973 12.7936 57.896C13.1243 58.1947 13.5723 58.344 14.1376 58.344ZM20.0784 59V51.24H21.0544V54.584H22.6544L25.3264 51.24H26.4304L23.6464 54.744C23.945 54.84 24.2117 55.0107 24.4464 55.256C24.681 55.5013 24.9584 55.8853 25.2784 56.408L26.8464 59H25.7904L24.3504 56.616C24.1477 56.296 23.9557 56.0453 23.7744 55.864C23.6037 55.6827 23.4064 55.56 23.1824 55.496C22.969 55.4213 22.697 55.384 22.3664 55.384H21.0544V59H20.0784ZM27.7063 59.16L27.2903 58.392C27.7916 58.1573 28.1809 57.8427 28.4583 57.448C28.7463 57.0533 28.9436 56.5093 29.0503 55.816C29.1676 55.112 29.2263 54.184 29.2263 53.032V51.24H34.5863V59H33.6103V52.04H30.1543V53.064C30.1543 54.3227 30.0743 55.3573 29.9143 56.168C29.7649 56.968 29.5089 57.6027 29.1463 58.072C28.7943 58.5413 28.3143 58.904 27.7063 59.16ZM43.4575 59.128C42.4122 59.128 41.5695 58.792 40.9295 58.12C40.3002 57.448 39.9535 56.536 39.8895 55.384H38.2415V59H37.2815V51.24H38.2415V54.584H39.9055C40.0122 53.5067 40.3748 52.6587 40.9935 52.04C41.6228 51.4107 42.4442 51.096 43.4575 51.096C44.1828 51.096 44.8122 51.2613 45.3455 51.592C45.8895 51.9227 46.3055 52.392 46.5935 53C46.8922 53.5973 47.0415 54.3013 47.0415 55.112C47.0415 55.9333 46.8922 56.648 46.5935 57.256C46.3055 57.8533 45.8895 58.3173 45.3455 58.648C44.8122 58.968 44.1828 59.128 43.4575 59.128ZM43.4575 58.312C44.2468 58.312 44.8762 58.0347 45.3455 57.48C45.8148 56.9147 46.0495 56.1253 46.0495 55.112C46.0495 54.0987 45.8148 53.3147 45.3455 52.76C44.8762 52.2053 44.2468 51.928 43.4575 51.928C42.6682 51.928 42.0388 52.2053 41.5695 52.76C41.1002 53.3147 40.8655 54.0987 40.8655 55.112C40.8655 56.1253 41.1002 56.9147 41.5695 57.48C42.0388 58.0347 42.6682 58.312 43.4575 58.312ZM54.2426 59V55.704C53.624 56.1093 52.8986 56.312 52.0666 56.312C50.9893 56.312 50.1893 56.056 49.6666 55.544C49.1546 55.0213 48.8986 54.232 48.8986 53.176V51.24H49.8746V53.128C49.8746 53.9387 50.056 54.5307 50.4186 54.904C50.7813 55.2773 51.3573 55.464 52.1466 55.464C52.5733 55.464 52.9466 55.416 53.2666 55.32C53.5973 55.224 53.9226 55.064 54.2426 54.84V51.24H55.2186V59H54.2426ZM61.2825 59.128C60.0878 59.128 59.1438 58.776 58.4505 58.072C57.7678 57.3573 57.4265 56.3813 57.4265 55.144C57.4265 54.344 57.5812 53.64 57.8905 53.032C58.1998 52.424 58.6265 51.9493 59.1705 51.608C59.7252 51.2667 60.3598 51.096 61.0745 51.096C62.1092 51.096 62.9145 51.432 63.4905 52.104C64.0665 52.776 64.3545 53.6987 64.3545 54.872V55.32H58.3865C58.4185 56.28 58.6798 57.0213 59.1705 57.544C59.6718 58.056 60.3652 58.312 61.2505 58.312C61.7305 58.312 62.1785 58.2373 62.5945 58.088C63.0212 57.9387 63.4372 57.688 63.8425 57.336L64.2265 58.072C63.8852 58.4027 63.4478 58.664 62.9145 58.856C62.3812 59.0373 61.8372 59.128 61.2825 59.128ZM61.0905 51.88C60.2798 51.88 59.6452 52.136 59.1865 52.648C58.7385 53.1493 58.4772 53.8 58.4025 54.6H63.4745C63.4532 53.7467 63.2398 53.08 62.8345 52.6C62.4292 52.12 61.8478 51.88 61.0905 51.88ZM66.469 59V51.24H67.445V54.584H72.037V51.24H73.013V59H72.037V55.4H67.445V59H66.469ZM75.7034 59V51.24H76.5994V57.608L81.3514 51.24H82.2154V59H81.3194V52.632L76.5514 59H75.7034ZM88.2825 59.128C87.0878 59.128 86.1438 58.776 85.4505 58.072C84.7678 57.3573 84.4265 56.3813 84.4265 55.144C84.4265 54.344 84.5812 53.64 84.8905 53.032C85.1998 52.424 85.6265 51.9493 86.1705 51.608C86.7252 51.2667 87.3598 51.096 88.0745 51.096C89.1092 51.096 89.9145 51.432 90.4905 52.104C91.0665 52.776 91.3545 53.6987 91.3545 54.872V55.32H85.3865C85.4185 56.28 85.6798 57.0213 86.1705 57.544C86.6718 58.056 87.3652 58.312 88.2505 58.312C88.7305 58.312 89.1785 58.2373 89.5945 58.088C90.0212 57.9387 90.4372 57.688 90.8425 57.336L91.2265 58.072C90.8852 58.4027 90.4478 58.664 89.9145 58.856C89.3812 59.0373 88.8372 59.128 88.2825 59.128ZM88.0905 51.88C87.2798 51.88 86.6452 52.136 86.1865 52.648C85.7385 53.1493 85.4772 53.8 85.4025 54.6H90.4745C90.4532 53.7467 90.2398 53.08 89.8345 52.6C89.4292 52.12 88.8478 51.88 88.0905 51.88ZM0.432 81.08V78.2H1.216C1.61067 77.6347 1.89333 76.9787 2.064 76.232C2.24533 75.4747 2.336 74.5893 2.336 73.576V71.24H7.584V78.2H8.784V81.08H7.936V79H1.28V81.08H0.432ZM2.224 78.2H6.64V72.04H3.232V73.672C3.232 74.536 3.14133 75.368 2.96 76.168C2.78933 76.9573 2.544 77.6347 2.224 78.2ZM13.7133 79.128C12.9879 79.128 12.3586 78.968 11.8253 78.648C11.2919 78.3173 10.8759 77.8533 10.5773 77.256C10.2893 76.648 10.1453 75.9333 10.1453 75.112C10.1453 74.3013 10.2893 73.5973 10.5773 73C10.8759 72.392 11.2919 71.9227 11.8253 71.592C12.3586 71.2613 12.9879 71.096 13.7133 71.096C14.4493 71.096 15.0839 71.2613 15.6173 71.592C16.1506 71.9227 16.5613 72.392 16.8493 73C17.1479 73.5973 17.2973 74.3013 17.2973 75.112C17.2973 75.9333 17.1479 76.648 16.8493 77.256C16.5613 77.8533 16.1506 78.3173 15.6173 78.648C15.0839 78.968 14.4493 79.128 13.7133 79.128ZM13.7133 78.312C14.5026 78.312 15.1319 78.0347 15.6013 77.48C16.0706 76.9147 16.3053 76.1253 16.3053 75.112C16.3053 74.0987 16.0706 73.3147 15.6013 72.76C15.1319 72.2053 14.5026 71.928 13.7133 71.928C12.9239 71.928 12.2946 72.2053 11.8253 72.76C11.3666 73.3147 11.1373 74.0987 11.1373 75.112C11.1373 76.1253 11.3666 76.9147 11.8253 77.48C12.2946 78.0347 12.9239 78.312 13.7133 78.312ZM19.5003 79V71.24H24.7483V72.056H20.4763V79H19.5003ZM29.3851 79.128C28.6598 79.128 28.0305 78.968 27.4971 78.648C26.9638 78.3173 26.5478 77.8533 26.2491 77.256C25.9611 76.648 25.8171 75.9333 25.8171 75.112C25.8171 74.3013 25.9611 73.5973 26.2491 73C26.5478 72.392 26.9638 71.9227 27.4971 71.592C28.0305 71.2613 28.6598 71.096 29.3851 71.096C30.1211 71.096 30.7558 71.2613 31.2891 71.592C31.8225 71.9227 32.2331 72.392 32.5211 73C32.8198 73.5973 32.9691 74.3013 32.9691 75.112C32.9691 75.9333 32.8198 76.648 32.5211 77.256C32.2331 77.8533 31.8225 78.3173 31.2891 78.648C30.7558 78.968 30.1211 79.128 29.3851 79.128ZM29.3851 78.312C30.1745 78.312 30.8038 78.0347 31.2731 77.48C31.7425 76.9147 31.9771 76.1253 31.9771 75.112C31.9771 74.0987 31.7425 73.3147 31.2731 72.76C30.8038 72.2053 30.1745 71.928 29.3851 71.928C28.5958 71.928 27.9665 72.2053 27.4971 72.76C27.0385 73.3147 26.8091 74.0987 26.8091 75.112C26.8091 76.1253 27.0385 76.9147 27.4971 77.48C27.9665 78.0347 28.5958 78.312 29.3851 78.312ZM35.1721 79V71.24H38.7721C40.5108 71.24 41.3801 71.9227 41.3801 73.288C41.3801 73.6933 41.2628 74.0507 41.0281 74.36C40.8041 74.6587 40.4948 74.8773 40.1001 75.016C40.5695 75.1227 40.9428 75.3413 41.2201 75.672C41.4975 76.0027 41.6361 76.4027 41.6361 76.872C41.6361 77.5333 41.3961 78.056 40.9161 78.44C40.4361 78.8133 39.7641 79 38.9001 79H35.1721ZM36.1161 74.696H38.7721C39.2948 74.696 39.7001 74.5787 39.9881 74.344C40.2868 74.0987 40.4361 73.7573 40.4361 73.32C40.4361 72.8933 40.2868 72.5627 39.9881 72.328C39.7001 72.0827 39.2948 71.96 38.7721 71.96H36.1161V74.696ZM36.1161 78.28H38.9001C39.4761 78.28 39.9135 78.1573 40.2121 77.912C40.5215 77.6667 40.6761 77.3093 40.6761 76.84C40.6761 76.3813 40.5215 76.0293 40.2121 75.784C39.9135 75.5387 39.4761 75.416 38.9001 75.416H36.1161V78.28ZM46.8539 79.128C46.1285 79.128 45.4992 78.968 44.9659 78.648C44.4325 78.3173 44.0165 77.8533 43.7179 77.256C43.4299 76.648 43.2859 75.9333 43.2859 75.112C43.2859 74.3013 43.4299 73.5973 43.7179 73C44.0165 72.392 44.4325 71.9227 44.9659 71.592C45.4992 71.2613 46.1285 71.096 46.8539 71.096C47.5899 71.096 48.2245 71.2613 48.7579 71.592C49.2912 71.9227 49.7019 72.392 49.9899 73C50.2885 73.5973 50.4379 74.3013 50.4379 75.112C50.4379 75.9333 50.2885 76.648 49.9899 77.256C49.7019 77.8533 49.2912 78.3173 48.7579 78.648C48.2245 78.968 47.5899 79.128 46.8539 79.128ZM46.8539 78.312C47.6432 78.312 48.2725 78.0347 48.7419 77.48C49.2112 76.9147 49.4459 76.1253 49.4459 75.112C49.4459 74.0987 49.2112 73.3147 48.7419 72.76C48.2725 72.2053 47.6432 71.928 46.8539 71.928C46.0645 71.928 45.4352 72.2053 44.9659 72.76C44.5072 73.3147 44.2779 74.0987 44.2779 75.112C44.2779 76.1253 44.5072 76.9147 44.9659 77.48C45.4352 78.0347 46.0645 78.312 46.8539 78.312ZM52.6409 81.88V71.24H53.6169V72.696C53.8515 72.2053 54.2035 71.816 54.6729 71.528C55.1529 71.24 55.7075 71.096 56.3369 71.096C57.0302 71.096 57.6329 71.2613 58.1449 71.592C58.6675 71.9227 59.0675 72.3867 59.3449 72.984C59.6329 73.5813 59.7769 74.2907 59.7769 75.112C59.7769 75.9333 59.6329 76.648 59.3449 77.256C59.0675 77.8533 58.6675 78.3173 58.1449 78.648C57.6329 78.968 57.0302 79.128 56.3369 79.128C55.7075 79.128 55.1529 78.9893 54.6729 78.712C54.2035 78.4347 53.8515 78.0507 53.6169 77.56V81.88H52.6409ZM56.1929 78.312C56.9822 78.312 57.6115 78.0347 58.0809 77.48C58.5502 76.9147 58.7849 76.1253 58.7849 75.112C58.7849 74.0987 58.5502 73.3147 58.0809 72.76C57.6115 72.2053 56.9822 71.928 56.1929 71.928C55.4035 71.928 54.7742 72.2053 54.3049 72.76C53.8355 73.3147 53.6009 74.0987 53.6009 75.112C53.6009 76.1253 53.8355 76.9147 54.3049 77.48C54.7742 78.0347 55.4035 78.312 56.1929 78.312ZM64.369 79.128C63.8463 79.128 63.377 79.0267 62.961 78.824C62.5557 78.6213 62.2303 78.344 61.985 77.992C61.7503 77.64 61.633 77.2453 61.633 76.808C61.633 76.232 61.777 75.784 62.065 75.464C62.353 75.1333 62.8383 74.8987 63.521 74.76C64.2037 74.6213 65.1423 74.552 66.337 74.552H66.833V73.976C66.833 73.2613 66.689 72.744 66.401 72.424C66.113 72.0933 65.6543 71.928 65.025 71.928C64.5557 71.928 64.1023 71.9973 63.665 72.136C63.2383 72.2747 62.7957 72.4933 62.337 72.792L61.953 72.04C62.3583 71.752 62.8383 71.5227 63.393 71.352C63.9477 71.1813 64.4863 71.096 65.009 71.096C65.9477 71.096 66.641 71.336 67.089 71.816C67.5477 72.296 67.777 73.032 67.777 74.024V79H66.849V77.608C66.6357 78.088 66.3103 78.4613 65.873 78.728C65.4463 78.9947 64.945 79.128 64.369 79.128ZM64.497 78.344C64.9557 78.344 65.3557 78.2373 65.697 78.024C66.049 77.8 66.3263 77.496 66.529 77.112C66.7317 76.728 66.833 76.2907 66.833 75.8V75.272H66.353C65.393 75.272 64.641 75.3147 64.097 75.4C63.5637 75.4853 63.1903 75.6347 62.977 75.848C62.7637 76.0613 62.657 76.3547 62.657 76.728C62.657 77.208 62.8223 77.5973 63.153 77.896C63.4837 78.1947 63.9317 78.344 64.497 78.344Z" fill="white"/>
</svg>
