<svg width="139" height="84" viewBox="0 0 139 84" fill="none" xmlns="http://www.w3.org/2000/svg">
<rect width="32" height="32" rx="16" fill="#F2C94C"/>
<path d="M12.4831 21V19.48L16.1311 15.592C16.6218 15.0587 16.9738 14.5893 17.1871 14.184C17.4005 13.768 17.5071 13.3467 17.5071 12.92C17.5071 11.832 16.8511 11.288 15.5391 11.288C14.5151 11.288 13.5711 11.672 12.7071 12.44L12.0191 10.904C12.4671 10.4987 13.0271 10.1733 13.6991 9.928C14.3711 9.68267 15.0698 9.56 15.7951 9.56C17.0005 9.56 17.9231 9.832 18.5631 10.376C19.2138 10.92 19.5391 11.6987 19.5391 12.712C19.5391 13.3947 19.3738 14.0507 19.0431 14.68C18.7231 15.3093 18.2165 15.9867 17.5231 16.712L15.0431 19.304H19.9711V21H12.4831Z" fill="#0E0E0E"/>
<path d="M1.472 59V47.72H10.544V59H9.552V48.6H2.448V59H1.472ZM13.3596 61.88V51.24H14.3356V52.696C14.5703 52.2053 14.9223 51.816 15.3916 51.528C15.8716 51.24 16.4263 51.096 17.0556 51.096C17.749 51.096 18.3516 51.2613 18.8636 51.592C19.3863 51.9227 19.7863 52.3867 20.0636 52.984C20.3516 53.5813 20.4956 54.2907 20.4956 55.112C20.4956 55.9333 20.3516 56.648 20.0636 57.256C19.7863 57.8533 19.3863 58.3173 18.8636 58.648C18.3516 58.968 17.749 59.128 17.0556 59.128C16.4263 59.128 15.8716 58.9893 15.3916 58.712C14.9223 58.4347 14.5703 58.0507 14.3356 57.56V61.88H13.3596ZM16.9116 58.312C17.701 58.312 18.3303 58.0347 18.7996 57.48C19.269 56.9147 19.5036 56.1253 19.5036 55.112C19.5036 54.0987 19.269 53.3147 18.7996 52.76C18.3303 52.2053 17.701 51.928 16.9116 51.928C16.1223 51.928 15.493 52.2053 15.0236 52.76C14.5543 53.3147 14.3196 54.0987 14.3196 55.112C14.3196 56.1253 14.5543 56.9147 15.0236 57.48C15.493 58.0347 16.1223 58.312 16.9116 58.312ZM22.6878 59V51.24H23.5838V57.608L28.3358 51.24H29.1998V59H28.3038V52.632L23.5358 59H22.6878ZM34.9789 59.128C34.2535 59.128 33.6242 58.968 33.0909 58.648C32.5575 58.3173 32.1415 57.8533 31.8429 57.256C31.5549 56.648 31.4109 55.9333 31.4109 55.112C31.4109 54.3013 31.5549 53.5973 31.8429 53C32.1415 52.392 32.5575 51.9227 33.0909 51.592C33.6242 51.2613 34.2535 51.096 34.9789 51.096C35.7149 51.096 36.3495 51.2613 36.8829 51.592C37.4162 51.9227 37.8269 52.392 38.1149 53C38.4135 53.5973 38.5629 54.3013 38.5629 55.112C38.5629 55.9333 38.4135 56.648 38.1149 57.256C37.8269 57.8533 37.4162 58.3173 36.8829 58.648C36.3495 58.968 35.7149 59.128 34.9789 59.128ZM34.9789 58.312C35.7682 58.312 36.3975 58.0347 36.8669 57.48C37.3362 56.9147 37.5709 56.1253 37.5709 55.112C37.5709 54.0987 37.3362 53.3147 36.8669 52.76C36.3975 52.2053 35.7682 51.928 34.9789 51.928C34.1895 51.928 33.5602 52.2053 33.0909 52.76C32.6322 53.3147 32.4029 54.0987 32.4029 55.112C32.4029 56.1253 32.6322 56.9147 33.0909 57.48C33.5602 58.0347 34.1895 58.312 34.9789 58.312ZM43.8699 59.128C42.7605 59.128 41.8805 58.7547 41.2299 58.008C40.5899 57.2613 40.2699 56.1787 40.2699 54.76V53.544C40.2699 52.52 40.3979 51.6667 40.6539 50.984C40.9205 50.2907 41.3152 49.736 41.8379 49.32C42.3605 48.8933 43.0219 48.5627 43.8219 48.328L46.6059 47.512L46.9579 48.344L43.8859 49.208C43.0005 49.464 42.3339 49.912 41.8859 50.552C41.4485 51.192 41.2299 51.9653 41.2299 52.872V52.888C41.4752 52.344 41.8432 51.9227 42.3339 51.624C42.8352 51.3147 43.4059 51.16 44.0459 51.16C44.7285 51.16 45.3205 51.3253 45.8219 51.656C46.3339 51.976 46.7285 52.4347 47.0059 53.032C47.2939 53.6187 47.4379 54.3173 47.4379 55.128C47.4379 55.9387 47.2885 56.648 46.9899 57.256C46.7019 57.8533 46.2912 58.3173 45.7579 58.648C45.2352 58.968 44.6059 59.128 43.8699 59.128ZM43.8379 58.312C44.6592 58.312 45.2992 58.04 45.7579 57.496C46.2165 56.952 46.4459 56.168 46.4459 55.144C46.4459 54.152 46.2165 53.3787 45.7579 52.824C45.2992 52.2693 44.6645 51.992 43.8539 51.992C43.0539 51.992 42.4192 52.264 41.9499 52.808C41.4912 53.3413 41.2619 54.072 41.2619 55C41.2619 56.088 41.4859 56.9147 41.9339 57.48C42.3925 58.0347 43.0272 58.312 43.8379 58.312ZM49.6409 61.88V51.24H50.6169V52.696C50.8515 52.2053 51.2035 51.816 51.6729 51.528C52.1529 51.24 52.7075 51.096 53.3369 51.096C54.0302 51.096 54.6329 51.2613 55.1449 51.592C55.6675 51.9227 56.0675 52.3867 56.3449 52.984C56.6329 53.5813 56.7769 54.2907 56.7769 55.112C56.7769 55.9333 56.6329 56.648 56.3449 57.256C56.0675 57.8533 55.6675 58.3173 55.1449 58.648C54.6329 58.968 54.0302 59.128 53.3369 59.128C52.7075 59.128 52.1529 58.9893 51.6729 58.712C51.2035 58.4347 50.8515 58.0507 50.6169 57.56V61.88H49.6409ZM53.1929 58.312C53.9822 58.312 54.6115 58.0347 55.0809 57.48C55.5502 56.9147 55.7849 56.1253 55.7849 55.112C55.7849 54.0987 55.5502 53.3147 55.0809 52.76C54.6115 52.2053 53.9822 51.928 53.1929 51.928C52.4035 51.928 51.7742 52.2053 51.3049 52.76C50.8355 53.3147 50.6009 54.0987 50.6009 55.112C50.6009 56.1253 50.8355 56.9147 51.3049 57.48C51.7742 58.0347 52.4035 58.312 53.1929 58.312ZM62.345 59.128C61.1503 59.128 60.2063 58.776 59.513 58.072C58.8303 57.3573 58.489 56.3813 58.489 55.144C58.489 54.344 58.6437 53.64 58.953 53.032C59.2623 52.424 59.689 51.9493 60.233 51.608C60.7877 51.2667 61.4223 51.096 62.137 51.096C63.1717 51.096 63.977 51.432 64.553 52.104C65.129 52.776 65.417 53.6987 65.417 54.872V55.32H59.449C59.481 56.28 59.7423 57.0213 60.233 57.544C60.7343 58.056 61.4277 58.312 62.313 58.312C62.793 58.312 63.241 58.2373 63.657 58.088C64.0837 57.9387 64.4997 57.688 64.905 57.336L65.289 58.072C64.9477 58.4027 64.5103 58.664 63.977 58.856C63.4437 59.0373 62.8997 59.128 62.345 59.128ZM62.153 51.88C61.3423 51.88 60.7077 52.136 60.249 52.648C59.801 53.1493 59.5397 53.8 59.465 54.6H64.537C64.5157 53.7467 64.3023 53.08 63.897 52.6C63.4917 52.12 62.9103 51.88 62.153 51.88ZM69.1475 59V52.056H66.2515V51.24H73.0195V52.056H70.1235V59H69.1475ZM77.7981 59.128C76.6035 59.128 75.6595 58.776 74.9661 58.072C74.2835 57.3573 73.9421 56.3813 73.9421 55.144C73.9421 54.344 74.0968 53.64 74.4061 53.032C74.7155 52.424 75.1421 51.9493 75.6861 51.608C76.2408 51.2667 76.8755 51.096 77.5901 51.096C78.6248 51.096 79.4301 51.432 80.0061 52.104C80.5821 52.776 80.8701 53.6987 80.8701 54.872V55.32H74.9021C74.9341 56.28 75.1955 57.0213 75.6861 57.544C76.1875 58.056 76.8808 58.312 77.7661 58.312C78.2461 58.312 78.6941 58.2373 79.1101 58.088C79.5368 57.9387 79.9528 57.688 80.3581 57.336L80.7421 58.072C80.4008 58.4027 79.9635 58.664 79.4301 58.856C78.8968 59.0373 78.3528 59.128 77.7981 59.128ZM77.6061 51.88C76.7955 51.88 76.1608 52.136 75.7021 52.648C75.2541 53.1493 74.9928 53.8 74.9181 54.6H79.9901C79.9688 53.7467 79.7555 53.08 79.3501 52.6C78.9448 52.12 78.3635 51.88 77.6061 51.88ZM82.9846 59V51.24H83.9606V54.584H88.5526V51.24H89.5286V59H88.5526V55.4H83.9606V59H82.9846ZM92.219 59V51.24H93.115V57.608L97.867 51.24H98.731V59H97.835V52.632L93.067 59H92.219ZM104.798 59.128C103.603 59.128 102.659 58.776 101.966 58.072C101.283 57.3573 100.942 56.3813 100.942 55.144C100.942 54.344 101.097 53.64 101.406 53.032C101.715 52.424 102.142 51.9493 102.686 51.608C103.241 51.2667 103.875 51.096 104.59 51.096C105.625 51.096 106.43 51.432 107.006 52.104C107.582 52.776 107.87 53.6987 107.87 54.872V55.32H101.902C101.934 56.28 102.195 57.0213 102.686 57.544C103.187 58.056 103.881 58.312 104.766 58.312C105.246 58.312 105.694 58.2373 106.11 58.088C106.537 57.9387 106.953 57.688 107.358 57.336L107.742 58.072C107.401 58.4027 106.963 58.664 106.43 58.856C105.897 59.0373 105.353 59.128 104.798 59.128ZM104.606 51.88C103.795 51.88 103.161 52.136 102.702 52.648C102.254 53.1493 101.993 53.8 101.918 54.6H106.99C106.969 53.7467 106.755 53.08 106.35 52.6C105.945 52.12 105.363 51.88 104.606 51.88ZM2.96 79V72.056H0.064V71.24H6.832V72.056H3.936V79H2.96ZM11.3226 79.128C10.5973 79.128 9.96796 78.968 9.43463 78.648C8.90129 78.3173 8.48529 77.8533 8.18663 77.256C7.89863 76.648 7.75463 75.9333 7.75463 75.112C7.75463 74.3013 7.89863 73.5973 8.18663 73C8.48529 72.392 8.90129 71.9227 9.43463 71.592C9.96796 71.2613 10.5973 71.096 11.3226 71.096C12.0586 71.096 12.6933 71.2613 13.2266 71.592C13.76 71.9227 14.1706 72.392 14.4586 73C14.7573 73.5973 14.9066 74.3013 14.9066 75.112C14.9066 75.9333 14.7573 76.648 14.4586 77.256C14.1706 77.8533 13.76 78.3173 13.2266 78.648C12.6933 78.968 12.0586 79.128 11.3226 79.128ZM11.3226 78.312C12.112 78.312 12.7413 78.0347 13.2106 77.48C13.68 76.9147 13.9146 76.1253 13.9146 75.112C13.9146 74.0987 13.68 73.3147 13.2106 72.76C12.7413 72.2053 12.112 71.928 11.3226 71.928C10.5333 71.928 9.90396 72.2053 9.43463 72.76C8.97596 73.3147 8.74663 74.0987 8.74663 75.112C8.74663 76.1253 8.97596 76.9147 9.43463 77.48C9.90396 78.0347 10.5333 78.312 11.3226 78.312ZM17.1096 79V71.24H20.7096C22.4483 71.24 23.3176 71.9227 23.3176 73.288C23.3176 73.6933 23.2003 74.0507 22.9656 74.36C22.7416 74.6587 22.4323 74.8773 22.0376 75.016C22.507 75.1227 22.8803 75.3413 23.1576 75.672C23.435 76.0027 23.5736 76.4027 23.5736 76.872C23.5736 77.5333 23.3336 78.056 22.8536 78.44C22.3736 78.8133 21.7016 79 20.8376 79H17.1096ZM18.0536 74.696H20.7096C21.2323 74.696 21.6376 74.5787 21.9256 74.344C22.2243 74.0987 22.3736 73.7573 22.3736 73.32C22.3736 72.8933 22.2243 72.5627 21.9256 72.328C21.6376 72.0827 21.2323 71.96 20.7096 71.96H18.0536V74.696ZM18.0536 78.28H20.8376C21.4136 78.28 21.851 78.1573 22.1496 77.912C22.459 77.6667 22.6136 77.3093 22.6136 76.84C22.6136 76.3813 22.459 76.0293 22.1496 75.784C21.851 75.5387 21.4136 75.416 20.8376 75.416H18.0536V78.28ZM28.1034 79.128C27.5807 79.128 27.1114 79.0267 26.6954 78.824C26.29 78.6213 25.9647 78.344 25.7194 77.992C25.4847 77.64 25.3674 77.2453 25.3674 76.808C25.3674 76.232 25.5114 75.784 25.7994 75.464C26.0874 75.1333 26.5727 74.8987 27.2554 74.76C27.938 74.6213 28.8767 74.552 30.0714 74.552H30.5674V73.976C30.5674 73.2613 30.4234 72.744 30.1354 72.424C29.8474 72.0933 29.3887 71.928 28.7594 71.928C28.29 71.928 27.8367 71.9973 27.3994 72.136C26.9727 72.2747 26.53 72.4933 26.0714 72.792L25.6874 72.04C26.0927 71.752 26.5727 71.5227 27.1274 71.352C27.682 71.1813 28.2207 71.096 28.7434 71.096C29.682 71.096 30.3754 71.336 30.8234 71.816C31.282 72.296 31.5114 73.032 31.5114 74.024V79H30.5834V77.608C30.37 78.088 30.0447 78.4613 29.6074 78.728C29.1807 78.9947 28.6794 79.128 28.1034 79.128ZM28.2314 78.344C28.69 78.344 29.09 78.2373 29.4314 78.024C29.7834 77.8 30.0607 77.496 30.2634 77.112C30.466 76.728 30.5674 76.2907 30.5674 75.8V75.272H30.0874C29.1274 75.272 28.3754 75.3147 27.8314 75.4C27.298 75.4853 26.9247 75.6347 26.7114 75.848C26.498 76.0613 26.3914 76.3547 26.3914 76.728C26.3914 77.208 26.5567 77.5973 26.8874 77.896C27.218 78.1947 27.666 78.344 28.2314 78.344ZM34.1721 81.88V71.24H35.1481V72.696C35.3828 72.2053 35.7348 71.816 36.2041 71.528C36.6841 71.24 37.2388 71.096 37.8681 71.096C38.5615 71.096 39.1641 71.2613 39.6761 71.592C40.1988 71.9227 40.5988 72.3867 40.8761 72.984C41.1641 73.5813 41.3081 74.2907 41.3081 75.112C41.3081 75.9333 41.1641 76.648 40.8761 77.256C40.5988 77.8533 40.1988 78.3173 39.6761 78.648C39.1641 78.968 38.5615 79.128 37.8681 79.128C37.2388 79.128 36.6841 78.9893 36.2041 78.712C35.7348 78.4347 35.3828 78.0507 35.1481 77.56V81.88H34.1721ZM37.7241 78.312C38.5135 78.312 39.1428 78.0347 39.6121 77.48C40.0815 76.9147 40.3161 76.1253 40.3161 75.112C40.3161 74.0987 40.0815 73.3147 39.6121 72.76C39.1428 72.2053 38.5135 71.928 37.7241 71.928C36.9348 71.928 36.3055 72.2053 35.8361 72.76C35.3668 73.3147 35.1321 74.0987 35.1321 75.112C35.1321 76.1253 35.3668 76.9147 35.8361 77.48C36.3055 78.0347 36.9348 78.312 37.7241 78.312ZM45.9003 79.128C45.3776 79.128 44.9083 79.0267 44.4923 78.824C44.0869 78.6213 43.7616 78.344 43.5163 77.992C43.2816 77.64 43.1643 77.2453 43.1643 76.808C43.1643 76.232 43.3083 75.784 43.5963 75.464C43.8843 75.1333 44.3696 74.8987 45.0523 74.76C45.7349 74.6213 46.6736 74.552 47.8683 74.552H48.3643V73.976C48.3643 73.2613 48.2203 72.744 47.9323 72.424C47.6443 72.0933 47.1856 71.928 46.5563 71.928C46.0869 71.928 45.6336 71.9973 45.1963 72.136C44.7696 72.2747 44.3269 72.4933 43.8683 72.792L43.4843 72.04C43.8896 71.752 44.3696 71.5227 44.9243 71.352C45.4789 71.1813 46.0176 71.096 46.5403 71.096C47.4789 71.096 48.1723 71.336 48.6203 71.816C49.0789 72.296 49.3083 73.032 49.3083 74.024V79H48.3803V77.608C48.1669 78.088 47.8416 78.4613 47.4043 78.728C46.9776 78.9947 46.4763 79.128 45.9003 79.128ZM46.0283 78.344C46.4869 78.344 46.8869 78.2373 47.2283 78.024C47.5803 77.8 47.8576 77.496 48.0603 77.112C48.2629 76.728 48.3643 76.2907 48.3643 75.8V75.272H47.8843C46.9243 75.272 46.1723 75.3147 45.6283 75.4C45.0949 75.4853 44.7216 75.6347 44.5082 75.848C44.2949 76.0613 44.1883 76.3547 44.1883 76.728C44.1883 77.208 44.3536 77.5973 44.6843 77.896C45.0149 78.1947 45.4629 78.344 46.0283 78.344ZM56.9766 81.88L58.2566 78.968L54.9606 71.24H56.0486L58.7846 77.928L61.5526 71.24H62.6086L58.0326 81.88H56.9766ZM68.2659 79V71.24H74.7619V79H73.7859V72.04H69.2419V79H68.2659ZM77.4534 81.88V71.24H78.4294V72.696C78.664 72.2053 79.016 71.816 79.4854 71.528C79.9654 71.24 80.52 71.096 81.1494 71.096C81.8427 71.096 82.4454 71.2613 82.9574 71.592C83.48 71.9227 83.88 72.3867 84.1574 72.984C84.4454 73.5813 84.5894 74.2907 84.5894 75.112C84.5894 75.9333 84.4454 76.648 84.1574 77.256C83.88 77.8533 83.48 78.3173 82.9574 78.648C82.4454 78.968 81.8427 79.128 81.1494 79.128C80.52 79.128 79.9654 78.9893 79.4854 78.712C79.016 78.4347 78.664 78.0507 78.4294 77.56V81.88H77.4534ZM81.0054 78.312C81.7947 78.312 82.424 78.0347 82.8934 77.48C83.3627 76.9147 83.5974 76.1253 83.5974 75.112C83.5974 74.0987 83.3627 73.3147 82.8934 72.76C82.424 72.2053 81.7947 71.928 81.0054 71.928C80.216 71.928 79.5867 72.2053 79.1174 72.76C78.648 73.3147 78.4134 74.0987 78.4134 75.112C78.4134 76.1253 78.648 76.9147 79.1174 77.48C79.5867 78.0347 80.216 78.312 81.0054 78.312ZM89.8695 79.128C89.1442 79.128 88.5148 78.968 87.9815 78.648C87.4482 78.3173 87.0322 77.8533 86.7335 77.256C86.4455 76.648 86.3015 75.9333 86.3015 75.112C86.3015 74.3013 86.4455 73.5973 86.7335 73C87.0322 72.392 87.4482 71.9227 87.9815 71.592C88.5148 71.2613 89.1442 71.096 89.8695 71.096C90.6055 71.096 91.2402 71.2613 91.7735 71.592C92.3068 71.9227 92.7175 72.392 93.0055 73C93.3042 73.5973 93.4535 74.3013 93.4535 75.112C93.4535 75.9333 93.3042 76.648 93.0055 77.256C92.7175 77.8533 92.3068 78.3173 91.7735 78.648C91.2402 78.968 90.6055 79.128 89.8695 79.128ZM89.8695 78.312C90.6588 78.312 91.2882 78.0347 91.7575 77.48C92.2268 76.9147 92.4615 76.1253 92.4615 75.112C92.4615 74.0987 92.2268 73.3147 91.7575 72.76C91.2882 72.2053 90.6588 71.928 89.8695 71.928C89.0802 71.928 88.4508 72.2053 87.9815 72.76C87.5228 73.3147 87.2935 74.0987 87.2935 75.112C87.2935 76.1253 87.5228 76.9147 87.9815 77.48C88.4508 78.0347 89.0802 78.312 89.8695 78.312ZM94.7445 81.08V78.2H95.5285C95.9232 77.6347 96.2058 76.9787 96.3765 76.232C96.5578 75.4747 96.6485 74.5893 96.6485 73.576V71.24H101.897V78.2H103.097V81.08H102.249V79H95.5925V81.08H94.7445ZM96.5365 78.2H100.953V72.04H97.5445V73.672C97.5445 74.536 97.4538 75.368 97.2725 76.168C97.1018 76.9573 96.8565 77.6347 96.5365 78.2ZM107.338 79.128C106.815 79.128 106.346 79.0267 105.93 78.824C105.524 78.6213 105.199 78.344 104.954 77.992C104.719 77.64 104.602 77.2453 104.602 76.808C104.602 76.232 104.746 75.784 105.034 75.464C105.322 75.1333 105.807 74.8987 106.49 74.76C107.172 74.6213 108.111 74.552 109.306 74.552H109.802V73.976C109.802 73.2613 109.658 72.744 109.37 72.424C109.082 72.0933 108.623 71.928 107.994 71.928C107.524 71.928 107.071 71.9973 106.634 72.136C106.207 72.2747 105.764 72.4933 105.306 72.792L104.922 72.04C105.327 71.752 105.807 71.5227 106.362 71.352C106.916 71.1813 107.455 71.096 107.978 71.096C108.916 71.096 109.61 71.336 110.058 71.816C110.516 72.296 110.746 73.032 110.746 74.024V79H109.818V77.608C109.604 78.088 109.279 78.4613 108.842 78.728C108.415 78.9947 107.914 79.128 107.338 79.128ZM107.466 78.344C107.924 78.344 108.324 78.2373 108.666 78.024C109.018 77.8 109.295 77.496 109.498 77.112C109.7 76.728 109.802 76.2907 109.802 75.8V75.272H109.322C108.362 75.272 107.61 75.3147 107.066 75.4C106.532 75.4853 106.159 75.6347 105.946 75.848C105.732 76.0613 105.626 76.3547 105.626 76.728C105.626 77.208 105.791 77.5973 106.122 77.896C106.452 78.1947 106.9 78.344 107.466 78.344ZM113.407 79V71.24H117.007C118.745 71.24 119.615 71.9227 119.615 73.288C119.615 73.6933 119.497 74.0507 119.263 74.36C119.039 74.6587 118.729 74.8773 118.335 75.016C118.804 75.1227 119.177 75.3413 119.455 75.672C119.732 76.0027 119.871 76.4027 119.871 76.872C119.871 77.5333 119.631 78.056 119.151 78.44C118.671 78.8133 117.999 79 117.135 79H113.407ZM114.351 74.696H117.007C117.529 74.696 117.935 74.5787 118.223 74.344C118.521 74.0987 118.671 73.7573 118.671 73.32C118.671 72.8933 118.521 72.5627 118.223 72.328C117.935 72.0827 117.529 71.96 117.007 71.96H114.351V74.696ZM114.351 78.28H117.135C117.711 78.28 118.148 78.1573 118.447 77.912C118.756 77.6667 118.911 77.3093 118.911 76.84C118.911 76.3813 118.756 76.0293 118.447 75.784C118.148 75.5387 117.711 75.416 117.135 75.416H114.351V78.28ZM128.672 81.08V79H122V71.24H122.976V78.2H127.36V71.24H128.336V78.2H129.536V81.08H128.672ZM133.775 79.128C133.253 79.128 132.783 79.0267 132.367 78.824C131.962 78.6213 131.637 78.344 131.391 77.992C131.157 77.64 131.039 77.2453 131.039 76.808C131.039 76.232 131.183 75.784 131.471 75.464C131.759 75.1333 132.245 74.8987 132.927 74.76C133.61 74.6213 134.549 74.552 135.743 74.552H136.239V73.976C136.239 73.2613 136.095 72.744 135.807 72.424C135.519 72.0933 135.061 71.928 134.431 71.928C133.962 71.928 133.509 71.9973 133.071 72.136C132.645 72.2747 132.202 72.4933 131.743 72.792L131.359 72.04C131.765 71.752 132.245 71.5227 132.799 71.352C133.354 71.1813 133.893 71.096 134.415 71.096C135.354 71.096 136.047 71.336 136.495 71.816C136.954 72.296 137.183 73.032 137.183 74.024V79H136.255V77.608C136.042 78.088 135.717 78.4613 135.279 78.728C134.853 78.9947 134.351 79.128 133.775 79.128ZM133.903 78.344C134.362 78.344 134.762 78.2373 135.103 78.024C135.455 77.8 135.733 77.496 135.935 77.112C136.138 76.728 136.239 76.2907 136.239 75.8V75.272H135.759C134.799 75.272 134.047 75.3147 133.503 75.4C132.97 75.4853 132.597 75.6347 132.383 75.848C132.17 76.0613 132.063 76.3547 132.063 76.728C132.063 77.208 132.229 77.5973 132.559 77.896C132.89 78.1947 133.338 78.344 133.903 78.344Z" fill="white"/>
</svg>
