<svg width="83" height="64" viewBox="0 0 83 64" fill="none" xmlns="http://www.w3.org/2000/svg">
<rect width="32" height="32" rx="16" fill="#F2C94C"/>
<path d="M16.7871 21V18.856H11.8751V17.352L17.1391 9.72H18.8351V17.16H20.4191V18.856H18.8351V21H16.7871ZM16.7871 17.16V12.856L13.8431 17.16H16.7871Z" fill="#0E0E0E"/>
<path d="M5.056 59.128C4.096 59.128 3.24267 58.9947 2.496 58.728C1.74933 58.4613 1.152 58.0987 0.704 57.64L1.104 56.84C1.63733 57.32 2.21333 57.672 2.832 57.896C3.45067 58.12 4.176 58.232 5.008 58.232C6.10667 58.232 6.912 58.04 7.424 57.656C7.94667 57.2613 8.208 56.68 8.208 55.912C8.208 55.1653 7.97867 54.616 7.52 54.264C7.06133 53.9013 6.368 53.72 5.44 53.72H2.688V52.872H5.2C6.096 52.872 6.77867 52.6907 7.248 52.328C7.71733 51.9547 7.952 51.4213 7.952 50.728C7.952 50.0347 7.70133 49.4907 7.2 49.096C6.70933 48.6907 5.984 48.488 5.024 48.488C4.33067 48.488 3.67467 48.6 3.056 48.824C2.448 49.0373 1.888 49.3733 1.376 49.832L0.96 49.032C1.46133 48.5627 2.07467 48.2053 2.8 47.96C3.52533 47.7147 4.28267 47.592 5.072 47.592C6.352 47.592 7.31733 47.8693 7.968 48.424C8.62933 48.9787 8.96 49.7307 8.96 50.68C8.96 51.2987 8.79467 51.8267 8.464 52.264C8.13333 52.7013 7.68533 53.0213 7.12 53.224C7.77067 53.384 8.28267 53.6987 8.656 54.168C9.02933 54.6267 9.216 55.2133 9.216 55.928C9.216 56.9307 8.87467 57.7147 8.192 58.28C7.50933 58.8453 6.464 59.128 5.056 59.128ZM14.0096 59.128C13.487 59.128 13.0176 59.0267 12.6016 58.824C12.1963 58.6213 11.871 58.344 11.6256 57.992C11.391 57.64 11.2736 57.2453 11.2736 56.808C11.2736 56.232 11.4176 55.784 11.7056 55.464C11.9936 55.1333 12.479 54.8987 13.1616 54.76C13.8443 54.6213 14.783 54.552 15.9776 54.552H16.4736V53.976C16.4736 53.2613 16.3296 52.744 16.0416 52.424C15.7536 52.0933 15.295 51.928 14.6656 51.928C14.1963 51.928 13.743 51.9973 13.3056 52.136C12.879 52.2747 12.4363 52.4933 11.9776 52.792L11.5936 52.04C11.999 51.752 12.479 51.5227 13.0336 51.352C13.5883 51.1813 14.127 51.096 14.6496 51.096C15.5883 51.096 16.2816 51.336 16.7296 51.816C17.1883 52.296 17.4176 53.032 17.4176 54.024V59H16.4896V57.608C16.2763 58.088 15.951 58.4613 15.5136 58.728C15.087 58.9947 14.5856 59.128 14.0096 59.128ZM14.1376 58.344C14.5963 58.344 14.9963 58.2373 15.3376 58.024C15.6896 57.8 15.967 57.496 16.1696 57.112C16.3723 56.728 16.4736 56.2907 16.4736 55.8V55.272H15.9936C15.0336 55.272 14.2816 55.3147 13.7376 55.4C13.2043 55.4853 12.831 55.6347 12.6176 55.848C12.4043 56.0613 12.2976 56.3547 12.2976 56.728C12.2976 57.208 12.463 57.5973 12.7936 57.896C13.1243 58.1947 13.5723 58.344 14.1376 58.344ZM21.6944 59V52.056H18.7984V51.24H25.5664V52.056H22.6704V59H21.6944ZM29.369 59.128C28.8463 59.128 28.377 59.0267 27.961 58.824C27.5557 58.6213 27.2303 58.344 26.985 57.992C26.7503 57.64 26.633 57.2453 26.633 56.808C26.633 56.232 26.777 55.784 27.065 55.464C27.353 55.1333 27.8383 54.8987 28.521 54.76C29.2037 54.6213 30.1423 54.552 31.337 54.552H31.833V53.976C31.833 53.2613 31.689 52.744 31.401 52.424C31.113 52.0933 30.6543 51.928 30.025 51.928C29.5557 51.928 29.1023 51.9973 28.665 52.136C28.2383 52.2747 27.7957 52.4933 27.337 52.792L26.953 52.04C27.3583 51.752 27.8383 51.5227 28.393 51.352C28.9477 51.1813 29.4863 51.096 30.009 51.096C30.9477 51.096 31.641 51.336 32.089 51.816C32.5477 52.296 32.777 53.032 32.777 54.024V59H31.849V57.608C31.6357 58.088 31.3103 58.4613 30.873 58.728C30.4463 58.9947 29.945 59.128 29.369 59.128ZM29.497 58.344C29.9557 58.344 30.3557 58.2373 30.697 58.024C31.049 57.8 31.3263 57.496 31.529 57.112C31.7317 56.728 31.833 56.2907 31.833 55.8V55.272H31.353C30.393 55.272 29.641 55.3147 29.097 55.4C28.5637 55.4853 28.1903 55.6347 27.977 55.848C27.7637 56.0613 27.657 56.3547 27.657 56.728C27.657 57.208 27.8223 57.5973 28.153 57.896C28.4837 58.1947 28.9317 58.344 29.497 58.344ZM35.4378 59V51.24H36.2538L39.2778 56.712L42.3018 51.24H43.1018V59H42.2378V52.968L39.5338 57.752H39.0058L36.3178 52.968V59H35.4378ZM48.8851 59.128C48.1598 59.128 47.5305 58.968 46.9971 58.648C46.4638 58.3173 46.0478 57.8533 45.7491 57.256C45.4611 56.648 45.3171 55.9333 45.3171 55.112C45.3171 54.3013 45.4611 53.5973 45.7491 53C46.0478 52.392 46.4638 51.9227 46.9971 51.592C47.5305 51.2613 48.1598 51.096 48.8851 51.096C49.6211 51.096 50.2558 51.2613 50.7891 51.592C51.3225 51.9227 51.7331 52.392 52.0211 53C52.3198 53.5973 52.4691 54.3013 52.4691 55.112C52.4691 55.9333 52.3198 56.648 52.0211 57.256C51.7331 57.8533 51.3225 58.3173 50.7891 58.648C50.2558 58.968 49.6211 59.128 48.8851 59.128ZM48.8851 58.312C49.6745 58.312 50.3038 58.0347 50.7731 57.48C51.2425 56.9147 51.4771 56.1253 51.4771 55.112C51.4771 54.0987 51.2425 53.3147 50.7731 52.76C50.3038 52.2053 49.6745 51.928 48.8851 51.928C48.0958 51.928 47.4665 52.2053 46.9971 52.76C46.5385 53.3147 46.3091 54.0987 46.3091 55.112C46.3091 56.1253 46.5385 56.9147 46.9971 57.48C47.4665 58.0347 48.0958 58.312 48.8851 58.312ZM53.3921 59L54.9601 56.408C55.2908 55.8853 55.5735 55.5013 55.8081 55.256C56.0428 55.0107 56.3095 54.84 56.6081 54.744L53.8241 51.24H54.9121L57.6001 54.584H58.9761V51.24H59.9521V54.584H61.3281L64.0001 51.24H65.0881L62.3041 54.744C62.6028 54.84 62.8695 55.0107 63.1041 55.256C63.3495 55.5013 63.6321 55.8853 63.9521 56.408L65.5201 59H64.4641L63.0081 56.616C62.8161 56.296 62.6295 56.0453 62.4481 55.864C62.2668 55.6827 62.0641 55.56 61.8401 55.496C61.6268 55.4213 61.3601 55.384 61.0401 55.384H59.9521V59H58.9761V55.384H57.8721C57.5521 55.384 57.2801 55.4213 57.0561 55.496C56.8428 55.56 56.6455 55.6827 56.4641 55.864C56.2828 56.0453 56.0961 56.296 55.9041 56.616L54.4481 59H53.3921ZM66.9221 59V51.24H67.8981V54.584H69.4981L72.1701 51.24H73.2741L70.4901 54.744C70.7888 54.84 71.0555 55.0107 71.2901 55.256C71.5248 55.5013 71.8021 55.8853 72.1221 56.408L73.6901 59H72.6341L71.1941 56.616C70.9915 56.296 70.7995 56.0453 70.6181 55.864C70.4475 55.6827 70.2501 55.56 70.0261 55.496C69.8128 55.4213 69.5408 55.384 69.2101 55.384H67.8981V59H66.9221ZM77.494 59.128C76.9713 59.128 76.502 59.0267 76.086 58.824C75.6807 58.6213 75.3553 58.344 75.11 57.992C74.8753 57.64 74.758 57.2453 74.758 56.808C74.758 56.232 74.902 55.784 75.19 55.464C75.478 55.1333 75.9633 54.8987 76.646 54.76C77.3287 54.6213 78.2673 54.552 79.462 54.552H79.958V53.976C79.958 53.2613 79.814 52.744 79.526 52.424C79.238 52.0933 78.7793 51.928 78.15 51.928C77.6807 51.928 77.2273 51.9973 76.79 52.136C76.3633 52.2747 75.9207 52.4933 75.462 52.792L75.078 52.04C75.4833 51.752 75.9633 51.5227 76.518 51.352C77.0727 51.1813 77.6113 51.096 78.134 51.096C79.0727 51.096 79.766 51.336 80.214 51.816C80.6727 52.296 80.902 53.032 80.902 54.024V59H79.974V57.608C79.7607 58.088 79.4353 58.4613 78.998 58.728C78.5713 58.9947 78.07 59.128 77.494 59.128ZM77.622 58.344C78.0807 58.344 78.4807 58.2373 78.822 58.024C79.174 57.8 79.4513 57.496 79.654 57.112C79.8567 56.728 79.958 56.2907 79.958 55.8V55.272H79.478C78.518 55.272 77.766 55.3147 77.222 55.4C76.6887 55.4853 76.3153 55.6347 76.102 55.848C75.8887 56.0613 75.782 56.3547 75.782 56.728C75.782 57.208 75.9473 57.5973 76.278 57.896C76.6087 58.1947 77.0567 58.344 77.622 58.344Z" fill="white"/>
</svg>
