<svg width="106" height="84" viewBox="0 0 106 84" fill="none" xmlns="http://www.w3.org/2000/svg">
<rect width="32" height="32" rx="16" fill="#F2C94C"/>
<path d="M15.7791 21.16C15.0111 21.16 14.2751 21.048 13.5711 20.824C12.8778 20.5893 12.3018 20.2747 11.8431 19.88L12.5151 18.312C13.4751 19.0587 14.5418 19.432 15.7151 19.432C17.1551 19.432 17.8751 18.8667 17.8751 17.736C17.8751 17.2027 17.6938 16.808 17.3311 16.552C16.9791 16.2853 16.4618 16.152 15.7791 16.152H13.9711V14.456H15.5871C16.1845 14.456 16.6591 14.312 17.0111 14.024C17.3631 13.7253 17.5391 13.3147 17.5391 12.792C17.5391 12.3013 17.3738 11.928 17.0431 11.672C16.7231 11.416 16.2538 11.288 15.6351 11.288C14.5258 11.288 13.5498 11.672 12.7071 12.44L12.0351 10.904C12.4831 10.4773 13.0431 10.1467 13.7151 9.912C14.3871 9.67733 15.0858 9.56 15.8111 9.56C16.9845 9.56 17.8965 9.82667 18.5471 10.36C19.1978 10.8827 19.5231 11.6133 19.5231 12.552C19.5231 13.16 19.3685 13.6933 19.0591 14.152C18.7498 14.6107 18.3285 14.9413 17.7951 15.144C18.4458 15.3253 18.9525 15.6613 19.3151 16.152C19.6778 16.632 19.8591 17.2187 19.8591 17.912C19.8591 18.9147 19.4965 19.7093 18.7711 20.296C18.0458 20.872 17.0485 21.16 15.7791 21.16Z" fill="#0E0E0E"/>
<path d="M5.056 59.128C4.096 59.128 3.24267 58.9947 2.496 58.728C1.74933 58.4613 1.152 58.0987 0.704 57.64L1.104 56.84C1.63733 57.32 2.21333 57.672 2.832 57.896C3.45067 58.12 4.176 58.232 5.008 58.232C6.10667 58.232 6.912 58.04 7.424 57.656C7.94667 57.2613 8.208 56.68 8.208 55.912C8.208 55.1653 7.97867 54.616 7.52 54.264C7.06133 53.9013 6.368 53.72 5.44 53.72H2.688V52.872H5.2C6.096 52.872 6.77867 52.6907 7.248 52.328C7.71733 51.9547 7.952 51.4213 7.952 50.728C7.952 50.0347 7.70133 49.4907 7.2 49.096C6.70933 48.6907 5.984 48.488 5.024 48.488C4.33067 48.488 3.67467 48.6 3.056 48.824C2.448 49.0373 1.888 49.3733 1.376 49.832L0.96 49.032C1.46133 48.5627 2.07467 48.2053 2.8 47.96C3.52533 47.7147 4.28267 47.592 5.072 47.592C6.352 47.592 7.31733 47.8693 7.968 48.424C8.62933 48.9787 8.96 49.7307 8.96 50.68C8.96 51.2987 8.79467 51.8267 8.464 52.264C8.13333 52.7013 7.68533 53.0213 7.12 53.224C7.77067 53.384 8.28267 53.6987 8.656 54.168C9.02933 54.6267 9.216 55.2133 9.216 55.928C9.216 56.9307 8.87467 57.7147 8.192 58.28C7.50933 58.8453 6.464 59.128 5.056 59.128ZM14.0096 59.128C13.487 59.128 13.0176 59.0267 12.6016 58.824C12.1963 58.6213 11.871 58.344 11.6256 57.992C11.391 57.64 11.2736 57.2453 11.2736 56.808C11.2736 56.232 11.4176 55.784 11.7056 55.464C11.9936 55.1333 12.479 54.8987 13.1616 54.76C13.8443 54.6213 14.783 54.552 15.9776 54.552H16.4736V53.976C16.4736 53.2613 16.3296 52.744 16.0416 52.424C15.7536 52.0933 15.295 51.928 14.6656 51.928C14.1963 51.928 13.743 51.9973 13.3056 52.136C12.879 52.2747 12.4363 52.4933 11.9776 52.792L11.5936 52.04C11.999 51.752 12.479 51.5227 13.0336 51.352C13.5883 51.1813 14.127 51.096 14.6496 51.096C15.5883 51.096 16.2816 51.336 16.7296 51.816C17.1883 52.296 17.4176 53.032 17.4176 54.024V59H16.4896V57.608C16.2763 58.088 15.951 58.4613 15.5136 58.728C15.087 58.9947 14.5856 59.128 14.0096 59.128ZM14.1376 58.344C14.5963 58.344 14.9963 58.2373 15.3376 58.024C15.6896 57.8 15.967 57.496 16.1696 57.112C16.3723 56.728 16.4736 56.2907 16.4736 55.8V55.272H15.9936C15.0336 55.272 14.2816 55.3147 13.7376 55.4C13.2043 55.4853 12.831 55.6347 12.6176 55.848C12.4043 56.0613 12.2976 56.3547 12.2976 56.728C12.2976 57.208 12.463 57.5973 12.7936 57.896C13.1243 58.1947 13.5723 58.344 14.1376 58.344ZM23.1824 59.128C22.073 59.128 21.193 58.7547 20.5424 58.008C19.9024 57.2613 19.5824 56.1787 19.5824 54.76V53.544C19.5824 52.52 19.7104 51.6667 19.9664 50.984C20.233 50.2907 20.6277 49.736 21.1504 49.32C21.673 48.8933 22.3344 48.5627 23.1344 48.328L25.9184 47.512L26.2704 48.344L23.1984 49.208C22.313 49.464 21.6464 49.912 21.1984 50.552C20.761 51.192 20.5424 51.9653 20.5424 52.872V52.888C20.7877 52.344 21.1557 51.9227 21.6464 51.624C22.1477 51.3147 22.7184 51.16 23.3584 51.16C24.041 51.16 24.633 51.3253 25.1344 51.656C25.6464 51.976 26.041 52.4347 26.3184 53.032C26.6064 53.6187 26.7504 54.3173 26.7504 55.128C26.7504 55.9387 26.601 56.648 26.3024 57.256C26.0144 57.8533 25.6037 58.3173 25.0704 58.648C24.5477 58.968 23.9184 59.128 23.1824 59.128ZM23.1504 58.312C23.9717 58.312 24.6117 58.04 25.0704 57.496C25.529 56.952 25.7584 56.168 25.7584 55.144C25.7584 54.152 25.529 53.3787 25.0704 52.824C24.6117 52.2693 23.977 51.992 23.1664 51.992C22.3664 51.992 21.7317 52.264 21.2624 52.808C20.8037 53.3413 20.5744 54.072 20.5744 55C20.5744 56.088 20.7984 56.9147 21.2464 57.48C21.705 58.0347 22.3397 58.312 23.1504 58.312ZM32.0414 59.128C31.316 59.128 30.6867 58.968 30.1534 58.648C29.62 58.3173 29.204 57.8533 28.9054 57.256C28.6174 56.648 28.4734 55.9333 28.4734 55.112C28.4734 54.3013 28.6174 53.5973 28.9054 53C29.204 52.392 29.62 51.9227 30.1534 51.592C30.6867 51.2613 31.316 51.096 32.0414 51.096C32.7774 51.096 33.412 51.2613 33.9454 51.592C34.4787 51.9227 34.8894 52.392 35.1774 53C35.476 53.5973 35.6254 54.3013 35.6254 55.112C35.6254 55.9333 35.476 56.648 35.1774 57.256C34.8894 57.8533 34.4787 58.3173 33.9454 58.648C33.412 58.968 32.7774 59.128 32.0414 59.128ZM32.0414 58.312C32.8307 58.312 33.46 58.0347 33.9294 57.48C34.3987 56.9147 34.6334 56.1253 34.6334 55.112C34.6334 54.0987 34.3987 53.3147 33.9294 52.76C33.46 52.2053 32.8307 51.928 32.0414 51.928C31.252 51.928 30.6227 52.2053 30.1534 52.76C29.6947 53.3147 29.4654 54.0987 29.4654 55.112C29.4654 56.1253 29.6947 56.9147 30.1534 57.48C30.6227 58.0347 31.252 58.312 32.0414 58.312ZM37.8284 61.88V51.24H38.8044V52.696C39.039 52.2053 39.391 51.816 39.8604 51.528C40.3404 51.24 40.895 51.096 41.5244 51.096C42.2177 51.096 42.8204 51.2613 43.3324 51.592C43.855 51.9227 44.255 52.3867 44.5324 52.984C44.8204 53.5813 44.9644 54.2907 44.9644 55.112C44.9644 55.9333 44.8204 56.648 44.5324 57.256C44.255 57.8533 43.855 58.3173 43.3324 58.648C42.8204 58.968 42.2177 59.128 41.5244 59.128C40.895 59.128 40.3404 58.9893 39.8604 58.712C39.391 58.4347 39.039 58.0507 38.8044 57.56V61.88H37.8284ZM41.3804 58.312C42.1697 58.312 42.799 58.0347 43.2684 57.48C43.7377 56.9147 43.9724 56.1253 43.9724 55.112C43.9724 54.0987 43.7377 53.3147 43.2684 52.76C42.799 52.2053 42.1697 51.928 41.3804 51.928C40.591 51.928 39.9617 52.2053 39.4924 52.76C39.023 53.3147 38.7884 54.0987 38.7884 55.112C38.7884 56.1253 39.023 56.9147 39.4924 57.48C39.9617 58.0347 40.591 58.312 41.3804 58.312ZM51.1721 59V51.24H56.4201V52.056H52.1481V59H51.1721ZM57.969 61.88V51.24H58.945V52.696C59.1797 52.2053 59.5317 51.816 60.001 51.528C60.481 51.24 61.0357 51.096 61.665 51.096C62.3583 51.096 62.961 51.2613 63.473 51.592C63.9957 51.9227 64.3957 52.3867 64.673 52.984C64.961 53.5813 65.105 54.2907 65.105 55.112C65.105 55.9333 64.961 56.648 64.673 57.256C64.3957 57.8533 63.9957 58.3173 63.473 58.648C62.961 58.968 62.3583 59.128 61.665 59.128C61.0357 59.128 60.481 58.9893 60.001 58.712C59.5317 58.4347 59.1797 58.0507 58.945 57.56V61.88H57.969ZM61.521 58.312C62.3103 58.312 62.9397 58.0347 63.409 57.48C63.8783 56.9147 64.113 56.1253 64.113 55.112C64.113 54.0987 63.8783 53.3147 63.409 52.76C62.9397 52.2053 62.3103 51.928 61.521 51.928C60.7317 51.928 60.1023 52.2053 59.633 52.76C59.1637 53.3147 58.929 54.0987 58.929 55.112C58.929 56.1253 59.1637 56.9147 59.633 57.48C60.1023 58.0347 60.7317 58.312 61.521 58.312ZM68.1954 61.88L69.4754 58.968L66.1794 51.24H67.2674L70.0034 57.928L72.7714 51.24H73.8274L69.2514 61.88H68.1954ZM77.901 59.128C77.2397 59.128 76.621 59.0373 76.045 58.856C75.4797 58.6747 75.0263 58.424 74.685 58.104L75.053 57.368C75.4157 57.688 75.8423 57.928 76.333 58.088C76.8237 58.248 77.341 58.328 77.885 58.328C78.6957 58.328 79.277 58.2 79.629 57.944C79.981 57.688 80.157 57.3253 80.157 56.856C80.157 56.3973 80.0023 56.0507 79.693 55.816C79.3943 55.5707 78.9623 55.448 78.397 55.448H76.669V54.68H78.253C78.7543 54.68 79.1543 54.5627 79.453 54.328C79.7517 54.0827 79.901 53.752 79.901 53.336C79.901 52.9093 79.741 52.568 79.421 52.312C79.1117 52.0453 78.621 51.912 77.949 51.912C77.405 51.912 76.909 51.9867 76.461 52.136C76.013 52.2747 75.581 52.4987 75.165 52.808L74.797 52.072C75.661 51.4213 76.733 51.096 78.013 51.096C78.973 51.096 79.6877 51.2933 80.157 51.688C80.6263 52.072 80.861 52.6053 80.861 53.288C80.861 53.6933 80.7437 54.0507 80.509 54.36C80.2743 54.6587 79.9597 54.8773 79.565 55.016C80.0343 55.1227 80.4077 55.3413 80.685 55.672C80.973 56.0027 81.117 56.4027 81.117 56.872C81.117 57.5547 80.8503 58.104 80.317 58.52C79.7837 58.9253 78.9783 59.128 77.901 59.128ZM85.6659 59.128C85.1432 59.128 84.6739 59.0267 84.2579 58.824C83.8525 58.6213 83.5272 58.344 83.2819 57.992C83.0472 57.64 82.9299 57.2453 82.9299 56.808C82.9299 56.232 83.0739 55.784 83.3619 55.464C83.6499 55.1333 84.1352 54.8987 84.8179 54.76C85.5005 54.6213 86.4392 54.552 87.6339 54.552H88.1299V53.976C88.1299 53.2613 87.9859 52.744 87.6979 52.424C87.4099 52.0933 86.9512 51.928 86.3219 51.928C85.8525 51.928 85.3992 51.9973 84.9619 52.136C84.5352 52.2747 84.0925 52.4933 83.6339 52.792L83.2499 52.04C83.6552 51.752 84.1352 51.5227 84.6899 51.352C85.2445 51.1813 85.7832 51.096 86.3059 51.096C87.2445 51.096 87.9379 51.336 88.3859 51.816C88.8445 52.296 89.0739 53.032 89.0739 54.024V59H88.1459V57.608C87.9325 58.088 87.6072 58.4613 87.1699 58.728C86.7432 58.9947 86.2419 59.128 85.6659 59.128ZM85.7939 58.344C86.2525 58.344 86.6525 58.2373 86.9939 58.024C87.3459 57.8 87.6232 57.496 87.8259 57.112C88.0285 56.728 88.1299 56.2907 88.1299 55.8V55.272H87.6499C86.6899 55.272 85.9379 55.3147 85.3939 55.4C84.8605 55.4853 84.4872 55.6347 84.2739 55.848C84.0605 56.0613 83.9539 56.3547 83.9539 56.728C83.9539 57.208 84.1192 57.5973 84.4499 57.896C84.7805 58.1947 85.2285 58.344 85.7939 58.344ZM2.336 81.88L3.616 78.968L0.32 71.24H1.408L4.144 77.928L6.912 71.24H7.968L3.392 81.88H2.336ZM16.7133 79.128C15.9879 79.128 15.3586 78.968 14.8253 78.648C14.2919 78.3173 13.8759 77.8533 13.5773 77.256C13.2893 76.648 13.1453 75.9333 13.1453 75.112C13.1453 74.3013 13.2893 73.5973 13.5773 73C13.8759 72.392 14.2919 71.9227 14.8253 71.592C15.3586 71.2613 15.9879 71.096 16.7133 71.096C17.4493 71.096 18.0839 71.2613 18.6173 71.592C19.1506 71.9227 19.5613 72.392 19.8493 73C20.1479 73.5973 20.2973 74.3013 20.2973 75.112C20.2973 75.9333 20.1479 76.648 19.8493 77.256C19.5613 77.8533 19.1506 78.3173 18.6173 78.648C18.0839 78.968 17.4493 79.128 16.7133 79.128ZM16.7133 78.312C17.5026 78.312 18.1319 78.0347 18.6013 77.48C19.0706 76.9147 19.3053 76.1253 19.3053 75.112C19.3053 74.0987 19.0706 73.3147 18.6013 72.76C18.1319 72.2053 17.5026 71.928 16.7133 71.928C15.9239 71.928 15.2946 72.2053 14.8253 72.76C14.3666 73.3147 14.1373 74.0987 14.1373 75.112C14.1373 76.1253 14.3666 76.9147 14.8253 77.48C15.2946 78.0347 15.9239 78.312 16.7133 78.312ZM24.1163 79V72.056H21.2203V71.24H27.9883V72.056H25.0923V79H24.1163ZM29.3909 79V71.24H35.8869V79H34.9109V72.04H30.3669V79H29.3909ZM38.5784 81.88V71.24H39.5544V72.696C39.789 72.2053 40.141 71.816 40.6104 71.528C41.0904 71.24 41.645 71.096 42.2744 71.096C42.9677 71.096 43.5704 71.2613 44.0824 71.592C44.605 71.9227 45.005 72.3867 45.2824 72.984C45.5704 73.5813 45.7144 74.2907 45.7144 75.112C45.7144 75.9333 45.5704 76.648 45.2824 77.256C45.005 77.8533 44.605 78.3173 44.0824 78.648C43.5704 78.968 42.9677 79.128 42.2744 79.128C41.645 79.128 41.0904 78.9893 40.6104 78.712C40.141 78.4347 39.789 78.0507 39.5544 77.56V81.88H38.5784ZM42.1304 78.312C42.9197 78.312 43.549 78.0347 44.0184 77.48C44.4877 76.9147 44.7224 76.1253 44.7224 75.112C44.7224 74.0987 44.4877 73.3147 44.0184 72.76C43.549 72.2053 42.9197 71.928 42.1304 71.928C41.341 71.928 40.7117 72.2053 40.2424 72.76C39.773 73.3147 39.5384 74.0987 39.5384 75.112C39.5384 76.1253 39.773 76.9147 40.2424 77.48C40.7117 78.0347 41.341 78.312 42.1304 78.312ZM50.3065 79.128C49.7838 79.128 49.3145 79.0267 48.8985 78.824C48.4932 78.6213 48.1678 78.344 47.9225 77.992C47.6878 77.64 47.5705 77.2453 47.5705 76.808C47.5705 76.232 47.7145 75.784 48.0025 75.464C48.2905 75.1333 48.7758 74.8987 49.4585 74.76C50.1412 74.6213 51.0798 74.552 52.2745 74.552H52.7705V73.976C52.7705 73.2613 52.6265 72.744 52.3385 72.424C52.0505 72.0933 51.5918 71.928 50.9625 71.928C50.4932 71.928 50.0398 71.9973 49.6025 72.136C49.1758 72.2747 48.7332 72.4933 48.2745 72.792L47.8905 72.04C48.2958 71.752 48.7758 71.5227 49.3305 71.352C49.8852 71.1813 50.4238 71.096 50.9465 71.096C51.8852 71.096 52.5785 71.336 53.0265 71.816C53.4852 72.296 53.7145 73.032 53.7145 74.024V79H52.7865V77.608C52.5732 78.088 52.2478 78.4613 51.8105 78.728C51.3838 78.9947 50.8825 79.128 50.3065 79.128ZM50.4345 78.344C50.8932 78.344 51.2932 78.2373 51.6345 78.024C51.9865 77.8 52.2638 77.496 52.4665 77.112C52.6692 76.728 52.7705 76.2907 52.7705 75.8V75.272H52.2905C51.3305 75.272 50.5785 75.3147 50.0345 75.4C49.5012 75.4853 49.1278 75.6347 48.9145 75.848C48.7012 76.0613 48.5945 76.3547 48.5945 76.728C48.5945 77.208 48.7598 77.5973 49.0905 77.896C49.4212 78.1947 49.8692 78.344 50.4345 78.344ZM56.3753 79V71.24H59.9753C61.7139 71.24 62.5833 71.9227 62.5833 73.288C62.5833 73.6933 62.4659 74.0507 62.2313 74.36C62.0073 74.6587 61.6979 74.8773 61.3033 75.016C61.7726 75.1227 62.1459 75.3413 62.4233 75.672C62.7006 76.0027 62.8393 76.4027 62.8393 76.872C62.8393 77.5333 62.5993 78.056 62.1193 78.44C61.6393 78.8133 60.9673 79 60.1033 79H56.3753ZM57.3193 74.696H59.9753C60.4979 74.696 60.9033 74.5787 61.1913 74.344C61.4899 74.0987 61.6393 73.7573 61.6393 73.32C61.6393 72.8933 61.4899 72.5627 61.1913 72.328C60.9033 72.0827 60.4979 71.96 59.9753 71.96H57.3193V74.696ZM57.3193 78.28H60.1033C60.6793 78.28 61.1166 78.1573 61.4153 77.912C61.7246 77.6667 61.8793 77.3093 61.8793 76.84C61.8793 76.3813 61.7246 76.0293 61.4153 75.784C61.1166 75.5387 60.6793 75.416 60.1033 75.416H57.3193V78.28ZM64.969 79V71.24H65.865V77.608L70.617 71.24H71.481V79H70.585V72.632L65.817 79H64.969ZM75.7881 79V72.056H72.8921V71.24H79.6601V72.056H76.7641V79H75.7881ZM84.4388 79.128C83.2441 79.128 82.3001 78.776 81.6068 78.072C80.9241 77.3573 80.5828 76.3813 80.5828 75.144C80.5828 74.344 80.7374 73.64 81.0468 73.032C81.3561 72.424 81.7828 71.9493 82.3268 71.608C82.8814 71.2667 83.5161 71.096 84.2308 71.096C85.2654 71.096 86.0708 71.432 86.6468 72.104C87.2228 72.776 87.5108 73.6987 87.5108 74.872V75.32H81.5428C81.5748 76.28 81.8361 77.0213 82.3268 77.544C82.8281 78.056 83.5214 78.312 84.4068 78.312C84.8868 78.312 85.3348 78.2373 85.7508 78.088C86.1774 77.9387 86.5934 77.688 86.9988 77.336L87.3828 78.072C87.0414 78.4027 86.6041 78.664 86.0708 78.856C85.5374 79.0373 84.9934 79.128 84.4388 79.128ZM84.2468 71.88C83.4361 71.88 82.8014 72.136 82.3428 72.648C81.8948 73.1493 81.6334 73.8 81.5588 74.6H86.6308C86.6094 73.7467 86.3961 73.08 85.9908 72.6C85.5854 72.12 85.0041 71.88 84.2468 71.88ZM89.0813 79.16L88.6653 78.392C89.1666 78.1573 89.5559 77.8427 89.8333 77.448C90.1213 77.0533 90.3186 76.5093 90.4253 75.816C90.5426 75.112 90.6013 74.184 90.6013 73.032V71.24H95.9613V79H94.9853V72.04H91.5293V73.064C91.5293 74.3227 91.4493 75.3573 91.2893 76.168C91.1399 76.968 90.8839 77.6027 90.5213 78.072C90.1693 78.5413 89.6893 78.904 89.0813 79.16ZM98.0325 79L99.2485 76.888C99.5792 76.3227 99.9952 75.9493 100.497 75.768C99.8245 75.6827 99.3018 75.448 98.9285 75.064C98.5552 74.6693 98.3685 74.1573 98.3685 73.528C98.3685 72.8453 98.5978 72.296 99.0565 71.88C99.5152 71.4533 100.209 71.24 101.137 71.24H104.433V79H103.489V75.912H102.225C101.745 75.912 101.345 76.0293 101.025 76.264C100.705 76.4987 100.443 76.7867 100.241 77.128L99.1685 79H98.0325ZM101.312 75.16H103.489V71.976H101.312C100.63 71.976 100.129 72.12 99.8085 72.408C99.4885 72.6853 99.3285 73.0693 99.3285 73.56C99.3285 74.0613 99.4885 74.456 99.8085 74.744C100.129 75.0213 100.63 75.16 101.312 75.16Z" fill="white"/>
</svg>
