<svg width="90" height="64" viewBox="0 0 90 64" fill="none" xmlns="http://www.w3.org/2000/svg">
<rect width="32" height="32" rx="16" fill="#F2C94C"/>
<path d="M16.4191 21.16C15.0218 21.16 13.9391 20.6693 13.1711 19.688C12.4138 18.7067 12.0351 17.3307 12.0351 15.56C12.0351 13.6507 12.4618 12.1733 13.3151 11.128C14.1791 10.0827 15.3685 9.56 16.8831 9.56C17.4805 9.56 18.0725 9.672 18.6591 9.896C19.2458 10.1093 19.7471 10.4187 20.1631 10.824L19.4911 12.36C19.0965 11.9973 18.6751 11.7307 18.2271 11.56C17.7791 11.3787 17.3205 11.288 16.8511 11.288C15.9231 11.288 15.2138 11.6133 14.7231 12.264C14.2325 12.9147 13.9871 13.8853 13.9871 15.176V15.64C14.2111 15.0533 14.5738 14.5947 15.0751 14.264C15.5765 13.9333 16.1525 13.768 16.8031 13.768C17.4538 13.768 18.0298 13.9227 18.5311 14.232C19.0325 14.5413 19.4271 14.968 19.7151 15.512C20.0031 16.056 20.1471 16.68 20.1471 17.384C20.1471 18.1093 19.9871 18.76 19.6671 19.336C19.3578 19.9013 18.9205 20.3493 18.3551 20.68C17.8005 21 17.1551 21.16 16.4191 21.16ZM16.3071 19.528C16.8831 19.528 17.3471 19.3413 17.6991 18.968C18.0618 18.584 18.2431 18.0827 18.2431 17.464C18.2431 16.8453 18.0618 16.344 17.6991 15.96C17.3471 15.576 16.8831 15.384 16.3071 15.384C15.7311 15.384 15.2618 15.576 14.8991 15.96C14.5471 16.344 14.3711 16.8453 14.3711 17.464C14.3711 18.0827 14.5471 18.584 14.8991 18.968C15.2618 19.3413 15.7311 19.528 16.3071 19.528Z" fill="#0E0E0E"/>
<path d="M1.472 59V47.72H5.728C6.93333 47.72 7.85067 48.008 8.48 48.584C9.12 49.16 9.44 49.9813 9.44 51.048C9.44 52.104 9.12 52.9253 8.48 53.512C7.85067 54.088 6.93333 54.376 5.728 54.376H2.448V59H1.472ZM2.448 53.512H5.648C7.51467 53.512 8.448 52.6907 8.448 51.048C8.448 49.3947 7.51467 48.568 5.648 48.568H2.448V53.512ZM13.5565 59.128C13.0338 59.128 12.5645 59.0267 12.1485 58.824C11.7432 58.6213 11.4178 58.344 11.1725 57.992C10.9378 57.64 10.8205 57.2453 10.8205 56.808C10.8205 56.232 10.9645 55.784 11.2525 55.464C11.5405 55.1333 12.0258 54.8987 12.7085 54.76C13.3912 54.6213 14.3298 54.552 15.5245 54.552H16.0205V53.976C16.0205 53.2613 15.8765 52.744 15.5885 52.424C15.3005 52.0933 14.8418 51.928 14.2125 51.928C13.7432 51.928 13.2898 51.9973 12.8525 52.136C12.4258 52.2747 11.9832 52.4933 11.5245 52.792L11.1405 52.04C11.5458 51.752 12.0258 51.5227 12.5805 51.352C13.1352 51.1813 13.6738 51.096 14.1965 51.096C15.1352 51.096 15.8285 51.336 16.2765 51.816C16.7352 52.296 16.9645 53.032 16.9645 54.024V59H16.0365V57.608C15.8232 58.088 15.4978 58.4613 15.0605 58.728C14.6338 58.9947 14.1325 59.128 13.5565 59.128ZM13.6845 58.344C14.1432 58.344 14.5432 58.2373 14.8845 58.024C15.2365 57.8 15.5138 57.496 15.7165 57.112C15.9192 56.728 16.0205 56.2907 16.0205 55.8V55.272H15.5405C14.5805 55.272 13.8285 55.3147 13.2845 55.4C12.7512 55.4853 12.3778 55.6347 12.1645 55.848C11.9512 56.0613 11.8445 56.3547 11.8445 56.728C11.8445 57.208 12.0098 57.5973 12.3405 57.896C12.6712 58.1947 13.1192 58.344 13.6845 58.344ZM22.0573 59.128C21.3959 59.128 20.7773 59.0373 20.2013 58.856C19.6359 58.6747 19.1826 58.424 18.8413 58.104L19.2093 57.368C19.5719 57.688 19.9986 57.928 20.4893 58.088C20.9799 58.248 21.4973 58.328 22.0413 58.328C22.8519 58.328 23.4333 58.2 23.7853 57.944C24.1373 57.688 24.3133 57.3253 24.3133 56.856C24.3133 56.3973 24.1586 56.0507 23.8493 55.816C23.5506 55.5707 23.1186 55.448 22.5533 55.448H20.8253V54.68H22.4093C22.9106 54.68 23.3106 54.5627 23.6093 54.328C23.9079 54.0827 24.0573 53.752 24.0573 53.336C24.0573 52.9093 23.8973 52.568 23.5773 52.312C23.2679 52.0453 22.7773 51.912 22.1053 51.912C21.5613 51.912 21.0653 51.9867 20.6173 52.136C20.1693 52.2747 19.7373 52.4987 19.3213 52.808L18.9533 52.072C19.8173 51.4213 20.8893 51.096 22.1693 51.096C23.1293 51.096 23.8439 51.2933 24.3133 51.688C24.7826 52.072 25.0173 52.6053 25.0173 53.288C25.0173 53.6933 24.8999 54.0507 24.6653 54.36C24.4306 54.6587 24.1159 54.8773 23.7213 55.016C24.1906 55.1227 24.5639 55.3413 24.8413 55.672C25.1293 56.0027 25.2733 56.4027 25.2733 56.872C25.2733 57.5547 25.0066 58.104 24.4733 58.52C23.9399 58.9253 23.1346 59.128 22.0573 59.128ZM29.1944 59V52.056H26.2984V51.24H33.0664V52.056H30.1704V59H29.1944ZM36.869 59.128C36.3463 59.128 35.877 59.0267 35.461 58.824C35.0557 58.6213 34.7303 58.344 34.485 57.992C34.2503 57.64 34.133 57.2453 34.133 56.808C34.133 56.232 34.277 55.784 34.565 55.464C34.853 55.1333 35.3383 54.8987 36.021 54.76C36.7037 54.6213 37.6423 54.552 38.837 54.552H39.333V53.976C39.333 53.2613 39.189 52.744 38.901 52.424C38.613 52.0933 38.1543 51.928 37.525 51.928C37.0557 51.928 36.6023 51.9973 36.165 52.136C35.7383 52.2747 35.2957 52.4933 34.837 52.792L34.453 52.04C34.8583 51.752 35.3383 51.5227 35.893 51.352C36.4477 51.1813 36.9863 51.096 37.509 51.096C38.4477 51.096 39.141 51.336 39.589 51.816C40.0477 52.296 40.277 53.032 40.277 54.024V59H39.349V57.608C39.1357 58.088 38.8103 58.4613 38.373 58.728C37.9463 58.9947 37.445 59.128 36.869 59.128ZM36.997 58.344C37.4557 58.344 37.8557 58.2373 38.197 58.024C38.549 57.8 38.8263 57.496 39.029 57.112C39.2317 56.728 39.333 56.2907 39.333 55.8V55.272H38.853C37.893 55.272 37.141 55.3147 36.597 55.4C36.0637 55.4853 35.6903 55.6347 35.477 55.848C35.2637 56.0613 35.157 56.3547 35.157 56.728C35.157 57.208 35.3223 57.5973 35.653 57.896C35.9837 58.1947 36.4317 58.344 36.997 58.344ZM42.9378 59V51.24H43.7538L46.7778 56.712L49.8018 51.24H50.6018V59H49.7378V52.968L47.0338 57.752H46.5058L43.8178 52.968V59H42.9378ZM56.3851 59.128C55.6598 59.128 55.0305 58.968 54.4971 58.648C53.9638 58.3173 53.5478 57.8533 53.2491 57.256C52.9611 56.648 52.8171 55.9333 52.8171 55.112C52.8171 54.3013 52.9611 53.5973 53.2491 53C53.5478 52.392 53.9638 51.9227 54.4971 51.592C55.0305 51.2613 55.6598 51.096 56.3851 51.096C57.1211 51.096 57.7558 51.2613 58.2891 51.592C58.8225 51.9227 59.2331 52.392 59.5211 53C59.8198 53.5973 59.9691 54.3013 59.9691 55.112C59.9691 55.9333 59.8198 56.648 59.5211 57.256C59.2331 57.8533 58.8225 58.3173 58.2891 58.648C57.7558 58.968 57.1211 59.128 56.3851 59.128ZM56.3851 58.312C57.1745 58.312 57.8038 58.0347 58.2731 57.48C58.7425 56.9147 58.9771 56.1253 58.9771 55.112C58.9771 54.0987 58.7425 53.3147 58.2731 52.76C57.8038 52.2053 57.1745 51.928 56.3851 51.928C55.5958 51.928 54.9665 52.2053 54.4971 52.76C54.0385 53.3147 53.8091 54.0987 53.8091 55.112C53.8091 56.1253 54.0385 56.9147 54.4971 57.48C54.9665 58.0347 55.5958 58.312 56.3851 58.312ZM60.8921 59L62.4601 56.408C62.7908 55.8853 63.0735 55.5013 63.3081 55.256C63.5428 55.0107 63.8095 54.84 64.1081 54.744L61.3241 51.24H62.4121L65.1001 54.584H66.4761V51.24H67.4521V54.584H68.8281L71.5001 51.24H72.5881L69.8041 54.744C70.1028 54.84 70.3695 55.0107 70.6041 55.256C70.8495 55.5013 71.1321 55.8853 71.4521 56.408L73.0201 59H71.9641L70.5081 56.616C70.3161 56.296 70.1295 56.0453 69.9481 55.864C69.7668 55.6827 69.5641 55.56 69.3401 55.496C69.1268 55.4213 68.8601 55.384 68.5401 55.384H67.4521V59H66.4761V55.384H65.3721C65.0521 55.384 64.7801 55.4213 64.5561 55.496C64.3428 55.56 64.1455 55.6827 63.9641 55.864C63.7828 56.0453 63.5961 56.296 63.4041 56.616L61.9481 59H60.8921ZM74.4221 59V51.24H75.3981V54.584H76.9981L79.6701 51.24H80.7741L77.9901 54.744C78.2888 54.84 78.5555 55.0107 78.7901 55.256C79.0248 55.5013 79.3021 55.8853 79.6221 56.408L81.1901 59H80.1341L78.6941 56.616C78.4915 56.296 78.2995 56.0453 78.1181 55.864C77.9475 55.6827 77.7501 55.56 77.5261 55.496C77.3128 55.4213 77.0408 55.384 76.7101 55.384H75.3981V59H74.4221ZM84.994 59.128C84.4713 59.128 84.002 59.0267 83.586 58.824C83.1807 58.6213 82.8553 58.344 82.61 57.992C82.3753 57.64 82.258 57.2453 82.258 56.808C82.258 56.232 82.402 55.784 82.69 55.464C82.978 55.1333 83.4633 54.8987 84.146 54.76C84.8287 54.6213 85.7673 54.552 86.962 54.552H87.458V53.976C87.458 53.2613 87.314 52.744 87.026 52.424C86.738 52.0933 86.2793 51.928 85.65 51.928C85.1807 51.928 84.7273 51.9973 84.29 52.136C83.8633 52.2747 83.4207 52.4933 82.962 52.792L82.578 52.04C82.9833 51.752 83.4633 51.5227 84.018 51.352C84.5727 51.1813 85.1113 51.096 85.634 51.096C86.5727 51.096 87.266 51.336 87.714 51.816C88.1727 52.296 88.402 53.032 88.402 54.024V59H87.474V57.608C87.2607 58.088 86.9353 58.4613 86.498 58.728C86.0713 58.9947 85.57 59.128 84.994 59.128ZM85.122 58.344C85.5807 58.344 85.9807 58.2373 86.322 58.024C86.674 57.8 86.9513 57.496 87.154 57.112C87.3567 56.728 87.458 56.2907 87.458 55.8V55.272H86.978C86.018 55.272 85.266 55.3147 84.722 55.4C84.1887 55.4853 83.8153 55.6347 83.602 55.848C83.3887 56.0613 83.282 56.3547 83.282 56.728C83.282 57.208 83.4473 57.5973 83.778 57.896C84.1087 58.1947 84.5567 58.344 85.122 58.344Z" fill="white"/>
</svg>
