<svg width="88" height="88" viewBox="0 0 88 88" fill="none" xmlns="http://www.w3.org/2000/svg">
<g clip-path="url(#clip0_111_443)">
<g clip-path="url(#clip1_111_443)">
<path d="M77.3 86V80.4C77.3 77.6 76.12 74.93 74.06 73.03L70.75 69.99" stroke="#4F4F4F" stroke-width="2" stroke-linecap="round" stroke-linejoin="round"/>
<path d="M10.7 86V80.4C10.7 77.6 11.88 74.93 13.94 73.03L17.25 69.99" stroke="#4F4F4F" stroke-width="2" stroke-linecap="round" stroke-linejoin="round"/>
<path d="M60 40V42C60 50.84 52.84 58 44 58C35.16 58 28 50.84 28 42V40" stroke="white" stroke-width="2" stroke-linecap="round" stroke-linejoin="round"/>
<path d="M32 82H20C18.8954 82 18 82.8954 18 84C18 85.1046 18.8954 86 20 86H32C33.1046 86 34 85.1046 34 84C34 82.8954 33.1046 82 32 82Z" stroke="#4F4F4F" stroke-width="2" stroke-linecap="round" stroke-linejoin="round"/>
<path d="M64 36V20C64 18.9 63.1 18 62 18H26C24.9 18 24 18.9 24 20V36" stroke="#F2C94C" stroke-width="2" stroke-linecap="round" stroke-linejoin="round"/>
<path d="M44 26C46.2091 26 48 24.2091 48 22C48 19.7909 46.2091 18 44 18C41.7909 18 40 19.7909 40 22C40 24.2091 41.7909 26 44 26Z" stroke="#F2C94C" stroke-width="2" stroke-linecap="round" stroke-linejoin="round"/>
<path d="M44 14C46.2091 14 48 12.2091 48 10C48 7.79086 46.2091 6 44 6C41.7909 6 40 7.79086 40 10C40 12.2091 41.7909 14 44 14Z" stroke="white" stroke-width="2" stroke-linecap="round" stroke-linejoin="round"/>
<path d="M28.02 42.75H25.2C23.29 42.75 21.74 41.2 21.74 39.29C21.74 37.38 23.29 35.83 25.2 35.83C26.75 35.83 28 34.58 28 33.03V30.35" stroke="white" stroke-width="2" stroke-linecap="round" stroke-linejoin="round"/>
<path d="M60 42.75H62.82C64.73 42.75 66.28 41.2 66.28 39.29C66.28 37.38 64.73 35.83 62.82 35.83C61.27 35.83 60.02 34.58 60.02 33.03V30.35" stroke="white" stroke-width="2" stroke-linecap="round" stroke-linejoin="round"/>
<path d="M34 54.79V61.91" stroke="white" stroke-width="2" stroke-linecap="round" stroke-linejoin="round"/>
<path d="M54 54.79V61.91" stroke="white" stroke-width="2" stroke-linecap="round" stroke-linejoin="round"/>
<path d="M30.49 7.82L40.42 2.85C42.67 1.72 45.33 1.72 47.58 2.85L72.65 15.4C74.08 16.12 74.13 18.15 72.74 18.93L64 23.85" stroke="#F2C94C" stroke-width="2" stroke-linecap="round" stroke-linejoin="round"/>
<path d="M23.9999 23.84L15.2599 18.92C13.8599 18.13 13.9099 16.11 15.3499 15.39L23.9999 11.06" stroke="#F2C94C" stroke-width="2" stroke-linecap="round" stroke-linejoin="round"/>
<path d="M52 26H24" stroke="#F2C94C" stroke-width="2" stroke-linecap="round" stroke-linejoin="round"/>
<path d="M64 26H58" stroke="#F2C94C" stroke-width="2" stroke-linecap="round" stroke-linejoin="round"/>
<path d="M29.98 68.89L20.52 71.74C19.13 72.16 17.67 71.37 17.25 69.98C16.83 68.59 17.62 67.13 19.01 66.71L30.5 63.25" stroke="white" stroke-width="2" stroke-linecap="round" stroke-linejoin="round"/>
<path d="M58 68.89L67.48 71.75C68.87 72.17 70.33 71.38 70.75 69.99C71.17 68.6 70.38 67.14 68.99 66.72L57.5 63.26" stroke="white" stroke-width="2" stroke-linecap="round" stroke-linejoin="round"/>
<path d="M40 70.47L42 76.47H46L48 70.47" stroke="white" stroke-width="2" stroke-linecap="round" stroke-linejoin="round"/>
<path d="M42 76.47L40 86" stroke="white" stroke-width="2" stroke-linecap="round" stroke-linejoin="round"/>
<path d="M46 76.47L48 86" stroke="white" stroke-width="2" stroke-linecap="round" stroke-linejoin="round"/>
<path d="M43.84 67.39L33.52 61.89C32.58 61.39 31.41 61.71 30.86 62.63L29.43 65.01C29.06 65.62 29.05 66.39 29.4 67.01L32.72 72.95C33.31 74.01 34.7 74.3 35.67 73.57L43.84 67.39V67.39Z" stroke="white" stroke-width="2" stroke-linecap="round" stroke-linejoin="round"/>
<path d="M44.1599 67.39L54.4799 61.89C55.4199 61.39 56.5899 61.71 57.1399 62.63L58.5699 65.01C58.9399 65.62 58.9499 66.39 58.5999 67.01L55.2799 72.95C54.6899 74.01 53.2999 74.3 52.3299 73.57L44.1599 67.39V67.39Z" stroke="white" stroke-width="2" stroke-linecap="round" stroke-linejoin="round"/>
<path d="M64 27.22C59.23 30.75 52.04 33 44 33C35.96 33 28.77 30.75 24 27.22" stroke="#F2C94C" stroke-width="2" stroke-linecap="round" stroke-linejoin="round"/>
</g>
</g>
<defs>
<clipPath id="clip0_111_443">
<rect width="88" height="88" fill="white"/>
</clipPath>
<clipPath id="clip1_111_443">
<rect width="88" height="88" fill="white"/>
</clipPath>
</defs>
</svg>
