<svg width="88" height="88" viewBox="0 0 88 88" fill="none" xmlns="http://www.w3.org/2000/svg">
<g clip-path="url(#clip0_111_424)">
<g clip-path="url(#clip1_111_424)">
<path d="M14 41.82L16.68 44.5L23.68 37.5" stroke="#F2C94C" stroke-width="2" stroke-linecap="round" stroke-linejoin="round"/>
<path d="M6 16V4C6 2.9 6.9 2 8 2H46V16" stroke="#4F4F4F" stroke-width="2" stroke-linecap="round" stroke-linejoin="round"/>
<path d="M46 16V2H84C85.1 2 86 2.9 86 4V42H59.16" stroke="#4F4F4F" stroke-width="2" stroke-linecap="round" stroke-linejoin="round"/>
<path d="M68 36H80" stroke="#4F4F4F" stroke-width="2" stroke-linecap="round" stroke-linejoin="round"/>
<path d="M59.1599 42H85.9999V82" stroke="#4F4F4F" stroke-width="2" stroke-linecap="round" stroke-linejoin="round"/>
<path d="M40 38H28" stroke="white" stroke-width="2" stroke-linecap="round" stroke-linejoin="round"/>
<path d="M56.34 59.39L48.94 52.81C47.86 51.85 46.2 51.94 45.24 53.03C44.28 54.11 44.37 55.77 45.46 56.73L52.84 63.29C53.7 64.05 53.74 65.39 52.93 66.2C49.89 69.24 49.89 74.17 52.93 77.21L61.37 85.65" stroke="white" stroke-width="2" stroke-linecap="round" stroke-linejoin="round"/>
<path d="M54 78.29V84C54 85.1 53.1 86 52 86H4C2.9 86 2 85.1 2 84V23C2 21.9 2.9 21 4 21H52C53.1 21 54 21.9 54 23V57.31" stroke="white" stroke-width="2" stroke-linecap="round" stroke-linejoin="round"/>
<path d="M48 65.47V79.5C48 80.6 47.1 81.5 46 81.5H10C8.9 81.5 8 80.6 8 79.5V27.5C8 26.4 8.9 25.5 10 25.5H19" stroke="#F2C94C" stroke-width="2" stroke-linecap="round" stroke-linejoin="round"/>
<path d="M38 25.5H46C47.1 25.5 48 26.4 48 27.5V46.84" stroke="#F2C94C" stroke-width="2" stroke-linecap="round" stroke-linejoin="round"/>
<path d="M14 53.82L16.68 56.5L23.68 49.5" stroke="#F2C94C" stroke-width="2" stroke-linecap="round" stroke-linejoin="round"/>
<path d="M14 65.82L16.68 68.5L23.68 61.5" stroke="#F2C94C" stroke-width="2" stroke-linecap="round" stroke-linejoin="round"/>
<path d="M40 44H28" stroke="white" stroke-width="2" stroke-linecap="round" stroke-linejoin="round"/>
<path d="M40 50H28" stroke="white" stroke-width="2" stroke-linecap="round" stroke-linejoin="round"/>
<path d="M40 56H28" stroke="white" stroke-width="2" stroke-linecap="round" stroke-linejoin="round"/>
<path d="M40 62H28" stroke="white" stroke-width="2" stroke-linecap="round" stroke-linejoin="round"/>
<path d="M40 68H28" stroke="white" stroke-width="2" stroke-linecap="round" stroke-linejoin="round"/>
<path d="M54 50H56.84C61.26 50 64.84 53.58 64.84 58V69.16C64.84 69.69 65.05 70.2 65.43 70.57L73.43 78.57" stroke="white" stroke-width="2" stroke-linecap="round" stroke-linejoin="round"/>
<path d="M19 26V21H37V26C37 27.1 36.1 28 35 28H21C19.9 28 19 27.1 19 26Z" stroke="white" stroke-width="2" stroke-linecap="round" stroke-linejoin="round"/>
</g>
</g>
<defs>
<clipPath id="clip0_111_424">
<rect width="88" height="88" fill="white"/>
</clipPath>
<clipPath id="clip1_111_424">
<rect width="88" height="88" fill="white"/>
</clipPath>
</defs>
</svg>
