<svg width="88" height="88" viewBox="0 0 88 88" fill="none" xmlns="http://www.w3.org/2000/svg">
<g clip-path="url(#clip0_111_437)">
<g clip-path="url(#clip1_111_437)">
<path d="M73 37.91V84C73 85.1 72.1 86 71 86H7C5.9 86 5 85.1 5 84V26L39 8L49.73 13.68" stroke="#4F4F4F" stroke-width="2" stroke-linecap="round" stroke-linejoin="round"/>
<path d="M70 34C78.8366 34 86 26.8366 86 18C86 9.16344 78.8366 2 70 2C61.1634 2 54 9.16344 54 18C54 26.8366 61.1634 34 70 34Z" stroke="white" stroke-width="2" stroke-linecap="round" stroke-linejoin="round"/>
<path d="M61.71 19.4L66.31 23.99L78.29 12.01" stroke="white" stroke-width="2" stroke-linecap="round" stroke-linejoin="round"/>
<path d="M63 73.67V86H15V36C15 34.9 15.9 34 17 34H61C62.1 34 63 34.9 63 36V65.74" stroke="#F2C94C" stroke-width="2" stroke-linecap="round" stroke-linejoin="round"/>
<path d="M15 46H63" stroke="#F2C94C" stroke-width="2" stroke-linecap="round" stroke-linejoin="round"/>
<path d="M15 40H63" stroke="#F2C94C" stroke-width="2" stroke-linecap="round" stroke-linejoin="round"/>
<path d="M33 68H15V86H33V68Z" stroke="white" stroke-width="2" stroke-linecap="round" stroke-linejoin="round"/>
<path d="M23.76 81.74H27.76" stroke="white" stroke-width="2" stroke-linecap="round" stroke-linejoin="round"/>
<path d="M51 68H33V86H51V68Z" stroke="white" stroke-width="2" stroke-linecap="round" stroke-linejoin="round"/>
<path d="M41.76 81.74H45.76" stroke="white" stroke-width="2" stroke-linecap="round" stroke-linejoin="round"/>
<path d="M42 50H24V68H42V50Z" stroke="white" stroke-width="2" stroke-linecap="round" stroke-linejoin="round"/>
<path d="M32.76 63.74H36.76" stroke="white" stroke-width="2" stroke-linecap="round" stroke-linejoin="round"/>
<path d="M1.21997 28L39 8L50 14" stroke="#4F4F4F" stroke-width="2" stroke-linecap="round" stroke-linejoin="round"/>
</g>
</g>
<defs>
<clipPath id="clip0_111_437">
<rect width="88" height="88" fill="white"/>
</clipPath>
<clipPath id="clip1_111_437">
<rect width="88" height="88" fill="white"/>
</clipPath>
</defs>
</svg>
