<svg width="40" height="40" viewBox="0 0 40 40" fill="none" xmlns="http://www.w3.org/2000/svg">
<path fill-rule="evenodd" clip-rule="evenodd" d="M23.0725 11C23.2191 11.9955 22.8139 12.9708 22.2793 13.6609C21.7074 14.401 20.7217 14.9735 19.7666 14.9436C19.5922 13.9904 20.0387 13.0084 20.5818 12.3483C21.1777 11.6197 22.1989 11.0607 23.0725 11ZM25.9415 25.0126C26.4338 24.258 26.6178 23.8773 27 23.0254C24.22 21.9682 23.7746 18.0159 26.5258 16.499C25.6866 15.4466 24.5074 14.8366 23.3942 14.8366C22.5922 14.8366 22.0426 15.0459 21.543 15.2362C21.1267 15.3948 20.7451 15.5401 20.2809 15.5401C19.7793 15.5401 19.3351 15.3809 18.87 15.2141C18.3589 15.0308 17.8225 14.8385 17.157 14.8385C15.9078 14.8385 14.5781 15.6018 13.7351 16.9067C12.5501 18.7445 12.7523 22.1995 14.6739 25.1427C15.3608 26.1961 16.2785 27.3795 17.4788 27.3901C17.9769 27.3951 18.3083 27.2464 18.667 27.0856C19.0775 26.9014 19.5237 26.7013 20.2962 26.6972C21.0733 26.6925 21.5124 26.8951 21.9175 27.0819C22.2669 27.2431 22.591 27.3926 23.0848 27.3872C24.2861 27.3776 25.2546 26.066 25.9415 25.0126Z" fill="white"/>
<rect x="9" y="5" width="22" height="30" rx="1" stroke="white" stroke-width="2"/>
</svg>
