<svg width="40" height="40" viewBox="0 0 40 40" fill="none" xmlns="http://www.w3.org/2000/svg">
<path d="M7.44844 20.9783C9.78642 19.6905 12.3963 18.6157 14.8348 17.5353C19.0299 15.7658 23.2418 14.027 27.4961 12.4082C28.3238 12.1323 29.8111 11.8626 29.9569 13.0893C29.8771 14.8256 29.5486 16.5518 29.3233 18.2779C28.7513 22.0739 28.0903 25.8569 27.4458 29.6404C27.2237 30.9007 25.6449 31.5531 24.6348 30.7466C22.2071 29.1068 19.7608 27.4829 17.3641 25.8051C16.579 25.0073 17.307 23.8618 18.0082 23.2921C20.0077 21.3216 22.1282 19.6474 24.0232 17.5751C24.5343 16.3407 23.024 17.381 22.5258 17.6998C19.7885 19.5861 17.1182 21.5876 14.2322 23.2454C12.758 24.0569 11.0398 23.3634 9.56634 22.9106C8.24516 22.3636 6.30914 21.8125 7.44831 20.9784L7.44844 20.9783Z" fill="white"/>
</svg>
