<svg width="40" height="40" viewBox="0 0 40 40" fill="none" xmlns="http://www.w3.org/2000/svg">
<path fill-rule="evenodd" clip-rule="evenodd" d="M20.6593 31.1271H20.6544C18.664 31.1265 16.7083 30.6271 14.9712 29.6796L8.66675 31.3334L10.3539 25.1707C9.31319 23.3671 8.76556 21.3213 8.76646 19.2252C8.76907 12.6681 14.1041 7.33337 20.6592 7.33337C23.8406 7.33475 26.8266 8.57326 29.0719 10.8212C31.3172 13.0691 32.5531 16.057 32.5519 19.2346C32.5492 25.7903 27.2163 31.1245 20.6593 31.1271ZM15.2633 27.5266L15.6243 27.7408C17.1419 28.6414 18.8816 29.118 20.6553 29.1187H20.6593C26.1075 29.1187 30.5417 24.6843 30.5439 19.2339C30.5449 16.5927 29.5177 14.1093 27.6515 12.2409C25.7852 10.3724 23.3034 9.34299 20.6632 9.34207C15.2109 9.34207 10.7766 13.776 10.7744 19.2259C10.7736 21.0937 11.2962 22.9126 12.2857 24.4864L12.5207 24.8604L11.5222 28.508L15.2633 27.5266ZM26.2438 21.7951C26.451 21.8953 26.591 21.9629 26.6507 22.0626C26.725 22.1865 26.725 22.7815 26.4775 23.4758C26.2298 24.1699 25.0426 24.8034 24.4717 24.8886C23.9597 24.9652 23.3119 24.9971 22.6 24.7709C22.1684 24.634 21.615 24.4511 20.906 24.1449C18.1202 22.942 16.2376 20.242 15.8818 19.7317C15.8569 19.696 15.8394 19.671 15.8297 19.658L15.8273 19.6548C15.6701 19.445 14.6163 18.0391 14.6163 16.584C14.6163 15.2152 15.2887 14.4978 15.5982 14.1676C15.6194 14.1449 15.6389 14.1241 15.6564 14.105C15.9287 13.8075 16.2507 13.7332 16.4488 13.7332C16.6469 13.7332 16.8452 13.735 17.0183 13.7437C17.0397 13.7448 17.0619 13.7446 17.0849 13.7445C17.258 13.7435 17.4739 13.7422 17.6869 14.2538C17.7688 14.4507 17.8887 14.7426 18.0152 15.0504C18.2709 15.6729 18.5534 16.3607 18.6031 16.4602C18.6774 16.609 18.7269 16.7824 18.6279 16.9808C18.613 17.0106 18.5992 17.0387 18.5861 17.0655C18.5117 17.2174 18.457 17.3291 18.3307 17.4765C18.2811 17.5345 18.2297 17.597 18.1784 17.6595C18.0762 17.784 17.974 17.9085 17.885 17.9971C17.7362 18.1453 17.5813 18.3061 17.7547 18.6036C17.928 18.9011 18.5244 19.8741 19.4078 20.6621C20.3574 21.5091 21.1827 21.8671 21.6011 22.0486C21.6828 22.084 21.7489 22.1127 21.7975 22.137C22.0945 22.2858 22.2679 22.2609 22.4412 22.0626C22.6146 21.8643 23.1841 21.1949 23.3821 20.8975C23.5802 20.6001 23.7784 20.6496 24.0507 20.7488C24.3231 20.848 25.7841 21.5668 26.0812 21.7155C26.1393 21.7446 26.1935 21.7708 26.2438 21.7951Z" fill="white"/>
</svg>
